<mxfile host="app.diagrams.net" agent="Mozilla/5.0 (Windows NT 10.0; Win64; x64) AppleWebKit/537.36 (KHTML, like Gecko) Chrome/128.0.0.0 Safari/537.36 Edg/128.0.0.0" version="24.7.16" pages="2">
  <diagram name="Page-1" id="9f46799a-70d6-7492-0946-bef42562c5a5">
    <mxGraphModel dx="2154" dy="1008" grid="1" gridSize="10" guides="1" tooltips="1" connect="1" arrows="1" fold="1" page="1" pageScale="1" pageWidth="1700" pageHeight="1100" background="none" math="0" shadow="0">
      <root>
        <mxCell id="0" />
        <mxCell id="1" parent="0" />
        <mxCell id="tvZUoOXrdXQMlg09LRuq-23" value="" style="edgeStyle=orthogonalEdgeStyle;rounded=0;orthogonalLoop=1;jettySize=auto;html=1;strokeWidth=2;verticalAlign=top;spacing=0;" parent="1" source="tvZUoOXrdXQMlg09LRuq-10" target="tvZUoOXrdXQMlg09LRuq-22" edge="1">
          <mxGeometry relative="1" as="geometry" />
        </mxCell>
        <mxCell id="tvZUoOXrdXQMlg09LRuq-10" value="&lt;div style=&quot;color: rgb(212, 212, 212); background-color: rgb(30, 30, 30); font-family: Consolas, &amp;quot;Courier New&amp;quot;, monospace; font-size: 16px; line-height: 22px; white-space: pre;&quot;&gt;&lt;div&gt;&amp;nbsp; &amp;nbsp;ParserImpl&lt;/div&gt;&lt;div&gt;&lt;span style=&quot;color: #569cd6;&quot;&gt;fn&lt;/span&gt; &lt;span style=&quot;color: rgb(220, 220, 170); text-decoration-line: underline;&quot;&gt;advance&lt;/span&gt;(&amp;amp;&lt;span style=&quot;color: #569cd6;&quot;&gt;mut&lt;/span&gt; &lt;span style=&quot;color: rgb(86, 156, 214); text-decoration-line: underline;&quot;&gt;self&lt;/span&gt;, &lt;span style=&quot;color: #9cdcfe;&quot;&gt;kind&lt;/span&gt;: &lt;span style=&quot;color: #4ec9b0;&quot;&gt;Kind&lt;/span&gt;) {&lt;/div&gt;&lt;div&gt;&amp;nbsp; &amp;nbsp; &amp;nbsp; &amp;nbsp; &lt;span style=&quot;color: rgb(86, 156, 214); text-decoration-line: underline;&quot;&gt;self&lt;/span&gt;.&lt;span style=&quot;color: rgb(220, 220, 170); text-decoration-line: underline;&quot;&gt;test_escaped_keyword&lt;/span&gt;(&lt;span style=&quot;color: #9cdcfe;&quot;&gt;kind&lt;/span&gt;);&lt;/div&gt;&lt;div&gt;&amp;nbsp; &amp;nbsp; &amp;nbsp; &amp;nbsp; &lt;span style=&quot;color: rgb(86, 156, 214); text-decoration-line: underline;&quot;&gt;self&lt;/span&gt;.&lt;span style=&quot;color: #9cdcfe;&quot;&gt;prev_token_end&lt;/span&gt; = &lt;span style=&quot;color: rgb(86, 156, 214); text-decoration-line: underline;&quot;&gt;self&lt;/span&gt;.&lt;span style=&quot;color: #9cdcfe;&quot;&gt;token&lt;/span&gt;.&lt;span style=&quot;color: #9cdcfe;&quot;&gt;end&lt;/span&gt;;&lt;/div&gt;&lt;div&gt;&amp;nbsp; &amp;nbsp; &amp;nbsp; &amp;nbsp; &lt;span style=&quot;color: rgb(86, 156, 214); text-decoration-line: underline;&quot;&gt;self&lt;/span&gt;.&lt;span style=&quot;color: #9cdcfe;&quot;&gt;token&lt;/span&gt; = &lt;span style=&quot;color: rgb(86, 156, 214); text-decoration-line: underline;&quot;&gt;self&lt;/span&gt;.&lt;span style=&quot;color: #9cdcfe;&quot;&gt;lexer&lt;/span&gt;.&lt;span style=&quot;color: rgb(220, 220, 170); text-decoration-line: underline;&quot;&gt;next_token&lt;/span&gt;();&lt;/div&gt;&lt;div&gt;&amp;nbsp;}&lt;/div&gt;&lt;/div&gt;" style="rounded=0;whiteSpace=wrap;html=1;align=left;strokeWidth=2;verticalAlign=top;spacing=0;" parent="1" vertex="1">
          <mxGeometry x="280" y="120" width="400" height="60" as="geometry" />
        </mxCell>
        <mxCell id="tvZUoOXrdXQMlg09LRuq-25" value="" style="edgeStyle=orthogonalEdgeStyle;rounded=0;orthogonalLoop=1;jettySize=auto;html=1;strokeWidth=2;verticalAlign=top;spacing=0;" parent="1" source="tvZUoOXrdXQMlg09LRuq-22" target="tvZUoOXrdXQMlg09LRuq-24" edge="1">
          <mxGeometry relative="1" as="geometry" />
        </mxCell>
        <mxCell id="tvZUoOXrdXQMlg09LRuq-22" value="&lt;div style=&quot;color: rgb(212, 212, 212); background-color: rgb(30, 30, 30); font-family: Consolas, &amp;quot;Courier New&amp;quot;, monospace; font-size: 16px; line-height: 22px; white-space: pre;&quot;&gt;&lt;div&gt;&amp;nbsp; &amp;nbsp; Lexer&lt;/div&gt;&lt;div&gt;&lt;span style=&quot;color: #569cd6;&quot;&gt;    pub&lt;/span&gt; &lt;span style=&quot;color: #569cd6;&quot;&gt;fn&lt;/span&gt; &lt;span style=&quot;color: rgb(220, 220, 170); text-decoration-line: underline;&quot;&gt;next_token&lt;/span&gt;(&amp;amp;&lt;span style=&quot;color: #569cd6;&quot;&gt;mut&lt;/span&gt; &lt;span style=&quot;color: rgb(86, 156, 214); text-decoration-line: underline;&quot;&gt;self&lt;/span&gt;) -&amp;gt; &lt;span style=&quot;color: #4ec9b0;&quot;&gt;Token&lt;/span&gt; {&lt;/div&gt;&lt;div&gt;&amp;nbsp; &amp;nbsp; &amp;nbsp; &amp;nbsp; &lt;span style=&quot;color: #c586c0;&quot;&gt;if&lt;/span&gt; &lt;span style=&quot;color: #569cd6;&quot;&gt;let&lt;/span&gt; &lt;span style=&quot;color: #4fc1ff;&quot;&gt;Some&lt;/span&gt;(&lt;span style=&quot;color: #9cdcfe;&quot;&gt;lookahead&lt;/span&gt;) = &lt;span style=&quot;color: rgb(86, 156, 214); text-decoration-line: underline;&quot;&gt;self&lt;/span&gt;.&lt;span style=&quot;color: #9cdcfe;&quot;&gt;lookahead&lt;/span&gt;.&lt;span style=&quot;color: rgb(220, 220, 170); text-decoration-line: underline;&quot;&gt;pop_front&lt;/span&gt;() {&lt;/div&gt;&lt;div&gt;&amp;nbsp; &amp;nbsp; &amp;nbsp; &amp;nbsp; &amp;nbsp; &amp;nbsp; &lt;span style=&quot;color: rgb(86, 156, 214); text-decoration-line: underline;&quot;&gt;self&lt;/span&gt;.&lt;span style=&quot;color: #9cdcfe;&quot;&gt;source&lt;/span&gt;.&lt;span style=&quot;color: rgb(220, 220, 170); text-decoration-line: underline;&quot;&gt;set_position&lt;/span&gt;(&lt;span style=&quot;color: #9cdcfe;&quot;&gt;lookahead&lt;/span&gt;.&lt;span style=&quot;color: #9cdcfe;&quot;&gt;position&lt;/span&gt;);&lt;/div&gt;&lt;div&gt;&amp;nbsp; &amp;nbsp; &amp;nbsp; &amp;nbsp; &amp;nbsp; &amp;nbsp; &lt;span style=&quot;color: #c586c0;&quot;&gt;return&lt;/span&gt; &lt;span style=&quot;color: #9cdcfe;&quot;&gt;lookahead&lt;/span&gt;.&lt;span style=&quot;color: #9cdcfe;&quot;&gt;token&lt;/span&gt;;&lt;/div&gt;&lt;div&gt;&amp;nbsp; &amp;nbsp; &amp;nbsp; &amp;nbsp; }&lt;/div&gt;&lt;div&gt;&amp;nbsp; &amp;nbsp; &amp;nbsp; &amp;nbsp; &lt;span style=&quot;color: #569cd6;&quot;&gt;let&lt;/span&gt; &lt;span style=&quot;color: #9cdcfe;&quot;&gt;kind&lt;/span&gt; = &lt;span style=&quot;color: rgb(86, 156, 214); text-decoration-line: underline;&quot;&gt;self&lt;/span&gt;.&lt;span style=&quot;color: rgb(220, 220, 170); text-decoration-line: underline;&quot;&gt;read_next_token&lt;/span&gt;();&lt;/div&gt;&lt;div&gt;&amp;nbsp; &amp;nbsp; &amp;nbsp; &amp;nbsp; &lt;span style=&quot;color: rgb(86, 156, 214); text-decoration-line: underline;&quot;&gt;self&lt;/span&gt;.&lt;span style=&quot;color: rgb(220, 220, 170); text-decoration-line: underline;&quot;&gt;finish_next&lt;/span&gt;(&lt;span style=&quot;color: #9cdcfe;&quot;&gt;kind&lt;/span&gt;)&lt;/div&gt;&lt;div&gt;&amp;nbsp; &amp;nbsp; }&lt;/div&gt;&lt;/div&gt;" style="whiteSpace=wrap;html=1;align=left;rounded=0;strokeWidth=2;verticalAlign=top;spacing=0;" parent="1" vertex="1">
          <mxGeometry x="280" y="300" width="540" height="60" as="geometry" />
        </mxCell>
        <mxCell id="tvZUoOXrdXQMlg09LRuq-27" value="" style="edgeStyle=orthogonalEdgeStyle;rounded=0;orthogonalLoop=1;jettySize=auto;html=1;strokeWidth=2;verticalAlign=top;spacing=0;" parent="1" source="tvZUoOXrdXQMlg09LRuq-24" target="tvZUoOXrdXQMlg09LRuq-26" edge="1">
          <mxGeometry relative="1" as="geometry" />
        </mxCell>
        <mxCell id="tvZUoOXrdXQMlg09LRuq-24" value="&lt;div style=&quot;color: rgb(212, 212, 212); background-color: rgb(30, 30, 30); font-family: Consolas, &amp;quot;Courier New&amp;quot;, monospace; font-size: 16px; line-height: 22px; white-space: pre;&quot;&gt;&lt;div&gt;&amp;nbsp; &amp;nbsp; Lexer&lt;/div&gt;&lt;div&gt;&lt;div style=&quot;line-height: 22px;&quot;&gt;&lt;div&gt;&amp;nbsp; &amp;nbsp; &lt;span style=&quot;color: #569cd6;&quot;&gt;fn&lt;/span&gt; &lt;span style=&quot;color: rgb(220, 220, 170); text-decoration-line: underline;&quot;&gt;read_next_token&lt;/span&gt;(&amp;amp;&lt;span style=&quot;color: #569cd6;&quot;&gt;mut&lt;/span&gt; &lt;span style=&quot;color: rgb(86, 156, 214); text-decoration-line: underline;&quot;&gt;self&lt;/span&gt;) -&amp;gt; &lt;span style=&quot;color: #4ec9b0;&quot;&gt;Kind&lt;/span&gt; {&lt;/div&gt;&lt;div&gt;&amp;nbsp; &amp;nbsp; &amp;nbsp; &amp;nbsp; &lt;span style=&quot;color: #c586c0;&quot;&gt;loop&lt;/span&gt; {&lt;/div&gt;&lt;div&gt;&amp;nbsp; &amp;nbsp; &amp;nbsp; &amp;nbsp; &amp;nbsp; &amp;nbsp; &lt;span style=&quot;color: #569cd6;&quot;&gt;let&lt;/span&gt; &lt;span style=&quot;color: #9cdcfe;&quot;&gt;offset&lt;/span&gt; = &lt;span style=&quot;color: rgb(86, 156, 214); text-decoration-line: underline;&quot;&gt;self&lt;/span&gt;.&lt;span style=&quot;color: #dcdcaa;&quot;&gt;offset&lt;/span&gt;();&lt;/div&gt;&lt;div&gt;&amp;nbsp; &amp;nbsp; &amp;nbsp; &amp;nbsp; &amp;nbsp; &amp;nbsp; &lt;span style=&quot;color: rgb(86, 156, 214); text-decoration-line: underline;&quot;&gt;self&lt;/span&gt;.&lt;span style=&quot;color: #9cdcfe;&quot;&gt;token&lt;/span&gt;.&lt;span style=&quot;color: #9cdcfe;&quot;&gt;start&lt;/span&gt; = &lt;span style=&quot;color: #9cdcfe;&quot;&gt;offset&lt;/span&gt;;&lt;/div&gt;&lt;br&gt;&lt;div&gt;&amp;nbsp; &amp;nbsp; &amp;nbsp; &amp;nbsp; &amp;nbsp; &amp;nbsp; &lt;span style=&quot;color: #569cd6;&quot;&gt;let&lt;/span&gt; &lt;span style=&quot;color: #4fc1ff;&quot;&gt;Some&lt;/span&gt;(&lt;span style=&quot;color: #9cdcfe;&quot;&gt;byte&lt;/span&gt;) = &lt;span style=&quot;color: rgb(86, 156, 214); text-decoration-line: underline;&quot;&gt;self&lt;/span&gt;.&lt;span style=&quot;color: #dcdcaa;&quot;&gt;peek_byte&lt;/span&gt;() &lt;span style=&quot;color: #c586c0;&quot;&gt;else&lt;/span&gt; {&lt;/div&gt;&lt;div&gt;&amp;nbsp; &amp;nbsp; &amp;nbsp; &amp;nbsp; &amp;nbsp; &amp;nbsp; &amp;nbsp; &amp;nbsp; &lt;span style=&quot;color: #c586c0;&quot;&gt;return&lt;/span&gt; &lt;span style=&quot;color: #4ec9b0;&quot;&gt;Kind&lt;/span&gt;::&lt;span style=&quot;color: #4fc1ff;&quot;&gt;Eof&lt;/span&gt;;&lt;/div&gt;&lt;div&gt;&amp;nbsp; &amp;nbsp; &amp;nbsp; &amp;nbsp; &amp;nbsp; &amp;nbsp; };&lt;/div&gt;&lt;br&gt;&lt;div&gt;&lt;span style=&quot;color: #6a9955;&quot;&gt;&amp;nbsp; &amp;nbsp; &amp;nbsp; &amp;nbsp; &amp;nbsp; &amp;nbsp; &lt;/span&gt;&lt;span style=&quot;color: #6a9955;&quot;&gt;// SAFETY: `byte` is byte value at current position in source&lt;/span&gt;&lt;/div&gt;&lt;div&gt;&amp;nbsp; &amp;nbsp; &amp;nbsp; &amp;nbsp; &amp;nbsp; &amp;nbsp; &lt;span style=&quot;color: #569cd6;&quot;&gt;let&lt;/span&gt; &lt;span style=&quot;color: #9cdcfe;&quot;&gt;kind&lt;/span&gt; = &lt;span style=&quot;color: #569cd6;&quot;&gt;unsafe&lt;/span&gt; { &lt;span style=&quot;color: #dcdcaa;&quot;&gt;handle_byte&lt;/span&gt;(&lt;span style=&quot;color: #9cdcfe;&quot;&gt;byte&lt;/span&gt;, &lt;span style=&quot;color: rgb(86, 156, 214); text-decoration-line: underline;&quot;&gt;self&lt;/span&gt;) };&lt;/div&gt;&lt;div&gt;&amp;nbsp; &amp;nbsp; &amp;nbsp; &amp;nbsp; &amp;nbsp; &amp;nbsp; &lt;span style=&quot;color: #c586c0;&quot;&gt;if&lt;/span&gt; &lt;span style=&quot;color: #9cdcfe;&quot;&gt;kind&lt;/span&gt; != &lt;span style=&quot;color: #4ec9b0;&quot;&gt;Kind&lt;/span&gt;::&lt;span style=&quot;color: #4fc1ff;&quot;&gt;Skip&lt;/span&gt; {&lt;/div&gt;&lt;div&gt;&amp;nbsp; &amp;nbsp; &amp;nbsp; &amp;nbsp; &amp;nbsp; &amp;nbsp; &amp;nbsp; &amp;nbsp; &lt;span style=&quot;color: #c586c0;&quot;&gt;return&lt;/span&gt; &lt;span style=&quot;color: #9cdcfe;&quot;&gt;kind&lt;/span&gt;;&lt;/div&gt;&lt;div&gt;&amp;nbsp; &amp;nbsp; &amp;nbsp; &amp;nbsp; &amp;nbsp; &amp;nbsp; }&lt;/div&gt;&lt;div&gt;&amp;nbsp; &amp;nbsp; &amp;nbsp; &amp;nbsp; }&lt;/div&gt;&lt;div&gt;&amp;nbsp; &amp;nbsp; }&lt;/div&gt;&lt;/div&gt;&lt;/div&gt;&lt;div&gt;&lt;span style=&quot;color: #569cd6;&quot;&gt;    fn&lt;/span&gt; &lt;span style=&quot;color: rgb(220, 220, 170); text-decoration-line: underline;&quot;&gt;finish_next&lt;/span&gt;(&amp;amp;&lt;span style=&quot;color: #569cd6;&quot;&gt;mut&lt;/span&gt; &lt;span style=&quot;color: rgb(86, 156, 214); text-decoration-line: underline;&quot;&gt;self&lt;/span&gt;, &lt;span style=&quot;color: #9cdcfe;&quot;&gt;kind&lt;/span&gt;: &lt;span style=&quot;color: #4ec9b0;&quot;&gt;Kind&lt;/span&gt;) -&amp;gt; &lt;span style=&quot;color: #4ec9b0;&quot;&gt;Token&lt;/span&gt; {&lt;/div&gt;&lt;div&gt;&amp;nbsp; &amp;nbsp; &amp;nbsp; &amp;nbsp; &lt;span style=&quot;color: rgb(86, 156, 214); text-decoration-line: underline;&quot;&gt;self&lt;/span&gt;.&lt;span style=&quot;color: #9cdcfe;&quot;&gt;token&lt;/span&gt;.&lt;span style=&quot;color: #9cdcfe;&quot;&gt;kind&lt;/span&gt; = &lt;span style=&quot;color: #9cdcfe;&quot;&gt;kind&lt;/span&gt;;&lt;/div&gt;&lt;div&gt;&amp;nbsp; &amp;nbsp; &amp;nbsp; &amp;nbsp; &lt;span style=&quot;color: rgb(86, 156, 214); text-decoration-line: underline;&quot;&gt;self&lt;/span&gt;.&lt;span style=&quot;color: #9cdcfe;&quot;&gt;token&lt;/span&gt;.&lt;span style=&quot;color: #9cdcfe;&quot;&gt;end&lt;/span&gt; = &lt;span style=&quot;color: rgb(86, 156, 214); text-decoration-line: underline;&quot;&gt;self&lt;/span&gt;.&lt;span style=&quot;color: #dcdcaa;&quot;&gt;offset&lt;/span&gt;();&lt;/div&gt;&lt;div&gt;&amp;nbsp; &amp;nbsp; &amp;nbsp; &amp;nbsp; &lt;span style=&quot;color: #569cd6;&quot;&gt;debug_assert&lt;/span&gt;&lt;span style=&quot;color: #569cd6;&quot;&gt;!&lt;/span&gt;(&lt;span style=&quot;color: rgb(86, 156, 214); text-decoration-line: underline;&quot;&gt;self&lt;/span&gt;.&lt;span style=&quot;color: #9cdcfe;&quot;&gt;token&lt;/span&gt;.&lt;span style=&quot;color: #9cdcfe;&quot;&gt;start&lt;/span&gt; &amp;lt;= &lt;span style=&quot;color: rgb(86, 156, 214); text-decoration-line: underline;&quot;&gt;self&lt;/span&gt;.&lt;span style=&quot;color: #9cdcfe;&quot;&gt;token&lt;/span&gt;.&lt;span style=&quot;color: #9cdcfe;&quot;&gt;end&lt;/span&gt;);&lt;/div&gt;&lt;div&gt;&amp;nbsp; &amp;nbsp; &amp;nbsp; &amp;nbsp; &lt;span style=&quot;color: #569cd6;&quot;&gt;let&lt;/span&gt; &lt;span style=&quot;color: #9cdcfe;&quot;&gt;token&lt;/span&gt; = &lt;span style=&quot;color: rgb(86, 156, 214); text-decoration-line: underline;&quot;&gt;self&lt;/span&gt;.&lt;span style=&quot;color: #9cdcfe;&quot;&gt;token&lt;/span&gt;;&lt;/div&gt;&lt;div&gt;&amp;nbsp; &amp;nbsp; &amp;nbsp; &amp;nbsp; &lt;span style=&quot;color: rgb(86, 156, 214); text-decoration-line: underline;&quot;&gt;self&lt;/span&gt;.&lt;span style=&quot;color: #9cdcfe;&quot;&gt;trivia_builder&lt;/span&gt;.&lt;span style=&quot;color: rgb(220, 220, 170); text-decoration-line: underline;&quot;&gt;handle_token&lt;/span&gt;(&lt;span style=&quot;color: #9cdcfe;&quot;&gt;token&lt;/span&gt;.&lt;span style=&quot;color: #9cdcfe;&quot;&gt;start&lt;/span&gt;);&lt;/div&gt;&lt;div&gt;&amp;nbsp; &amp;nbsp; &amp;nbsp; &amp;nbsp; &lt;span style=&quot;color: rgb(86, 156, 214); text-decoration-line: underline;&quot;&gt;self&lt;/span&gt;.&lt;span style=&quot;color: #9cdcfe;&quot;&gt;token&lt;/span&gt; = &lt;span style=&quot;color: #4ec9b0;&quot;&gt;Token&lt;/span&gt;::&lt;span style=&quot;color: #dcdcaa;&quot;&gt;default&lt;/span&gt;();&lt;/div&gt;&lt;div&gt;&amp;nbsp; &amp;nbsp; &amp;nbsp; &amp;nbsp; &lt;span style=&quot;color: #9cdcfe;&quot;&gt;token&lt;/span&gt;&lt;/div&gt;&lt;div&gt;&amp;nbsp; &amp;nbsp; }&lt;/div&gt;&lt;div&gt;&lt;div style=&quot;line-height: 22px;&quot;&gt;&lt;div&gt;&amp;nbsp; &amp;nbsp; &lt;span style=&quot;color: #569cd6;&quot;&gt;fn&lt;/span&gt; &lt;span style=&quot;color: #dcdcaa;&quot;&gt;peek_byte&lt;/span&gt;(&amp;amp;&lt;span style=&quot;color: #569cd6;&quot;&gt;self&lt;/span&gt;) -&amp;gt; &lt;span style=&quot;color: #4ec9b0;&quot;&gt;Option&lt;/span&gt;&amp;lt;&lt;span style=&quot;color: #4ec9b0;&quot;&gt;u8&lt;/span&gt;&amp;gt; {&lt;/div&gt;&lt;div&gt;&amp;nbsp; &amp;nbsp; &amp;nbsp; &amp;nbsp; &lt;span style=&quot;color: #569cd6;&quot;&gt;self&lt;/span&gt;.&lt;span style=&quot;color: #9cdcfe;&quot;&gt;source&lt;/span&gt;.&lt;span style=&quot;color: #dcdcaa;&quot;&gt;peek_byte&lt;/span&gt;()&lt;/div&gt;&lt;div&gt;&amp;nbsp; &amp;nbsp; }&lt;/div&gt;&lt;/div&gt;&lt;/div&gt;&lt;/div&gt;" style="whiteSpace=wrap;html=1;align=left;rounded=0;strokeWidth=2;verticalAlign=top;spacing=0;" parent="1" vertex="1">
          <mxGeometry x="280" y="560" width="640" height="60" as="geometry" />
        </mxCell>
        <mxCell id="tvZUoOXrdXQMlg09LRuq-29" value="" style="edgeStyle=orthogonalEdgeStyle;rounded=0;orthogonalLoop=1;jettySize=auto;html=1;strokeWidth=2;verticalAlign=top;spacing=0;" parent="1" source="tvZUoOXrdXQMlg09LRuq-26" target="tvZUoOXrdXQMlg09LRuq-28" edge="1">
          <mxGeometry relative="1" as="geometry">
            <Array as="points">
              <mxPoint x="1080" y="660" />
              <mxPoint x="1080" y="660" />
            </Array>
          </mxGeometry>
        </mxCell>
        <mxCell id="tvZUoOXrdXQMlg09LRuq-26" value="&lt;div style=&quot;color: rgb(212, 212, 212); background-color: rgb(30, 30, 30); font-family: Consolas, &amp;quot;Courier New&amp;quot;, monospace; font-size: 16px; line-height: 22px; white-space: pre;&quot;&gt;&lt;div&gt;&lt;span style=&quot;color: #569cd6;&quot;&gt;pub&lt;/span&gt;(&lt;span style=&quot;color: #569cd6;&quot;&gt;super&lt;/span&gt;) &lt;span style=&quot;color: #569cd6;&quot;&gt;unsafe&lt;/span&gt; &lt;span style=&quot;color: #569cd6;&quot;&gt;fn&lt;/span&gt; &lt;span style=&quot;color: #dcdcaa;&quot;&gt;handle_byte&lt;/span&gt;(&lt;span style=&quot;color: #9cdcfe;&quot;&gt;byte&lt;/span&gt;: &lt;span style=&quot;color: #4ec9b0;&quot;&gt;u8&lt;/span&gt;, &lt;span style=&quot;color: rgb(156, 220, 254); text-decoration-line: underline;&quot;&gt;lexer&lt;/span&gt;: &amp;amp;&lt;span style=&quot;color: #569cd6;&quot;&gt;mut&lt;/span&gt; &lt;span style=&quot;color: #4ec9b0;&quot;&gt;Lexer&lt;/span&gt;) -&amp;gt; &lt;span style=&quot;color: #4ec9b0;&quot;&gt;Kind&lt;/span&gt; {&lt;/div&gt;&lt;div&gt;&amp;nbsp; &amp;nbsp; &lt;span style=&quot;color: #9cdcfe;&quot;&gt;BYTE_HANDLERS&lt;/span&gt;[&lt;span style=&quot;color: #9cdcfe;&quot;&gt;byte&lt;/span&gt; &lt;span style=&quot;color: #569cd6;&quot;&gt;as&lt;/span&gt; &lt;span style=&quot;color: #4ec9b0;&quot;&gt;usize&lt;/span&gt;](&lt;span style=&quot;color: rgb(156, 220, 254); text-decoration-line: underline;&quot;&gt;lexer&lt;/span&gt;)&lt;/div&gt;&lt;div&gt;}&lt;/div&gt;&lt;/div&gt;" style="whiteSpace=wrap;html=1;align=left;rounded=0;strokeWidth=2;verticalAlign=top;spacing=0;" parent="1" vertex="1">
          <mxGeometry x="990" y="570" width="620" height="60" as="geometry" />
        </mxCell>
        <mxCell id="nU4OC9a3Mu2xvyX8Yyjs-2" value="" style="rounded=0;orthogonalLoop=1;jettySize=auto;html=1;strokeWidth=2;verticalAlign=top;spacing=0;exitX=0.392;exitY=1.043;exitDx=0;exitDy=0;entryX=0.158;entryY=0.006;entryDx=0;entryDy=0;exitPerimeter=0;edgeStyle=orthogonalEdgeStyle;entryPerimeter=0;" edge="1" parent="1" source="tvZUoOXrdXQMlg09LRuq-28" target="nU4OC9a3Mu2xvyX8Yyjs-1">
          <mxGeometry relative="1" as="geometry">
            <mxPoint x="1091.42" y="773.78" as="sourcePoint" />
            <mxPoint x="1090" y="1270.0000000000002" as="targetPoint" />
          </mxGeometry>
        </mxCell>
        <mxCell id="tvZUoOXrdXQMlg09LRuq-28" value="&lt;div style=&quot;background-color: rgb(30, 30, 30); font-family: Consolas, &amp;quot;Courier New&amp;quot;, monospace; font-size: 16px; line-height: 22px; white-space: pre;&quot;&gt;&lt;font color=&quot;#9cdcfe&quot;&gt;// 读到 v 为例子&lt;/font&gt;&lt;/div&gt;&lt;div style=&quot;background-color: rgb(30, 30, 30); line-height: 22px; white-space: pre; font-size: 16px; font-family: Consolas, &amp;quot;Courier New&amp;quot;, monospace; color: rgb(212, 212, 212);&quot;&gt;&lt;div style=&quot;line-height: 22px;&quot;&gt;&lt;div&gt;&lt;span style=&quot;color: #569cd6;&quot;&gt;ascii_identifier_handler&lt;/span&gt;&lt;span style=&quot;color: #569cd6;&quot;&gt;!&lt;/span&gt;(&lt;span style=&quot;color: #dcdcaa;&quot;&gt;L_V&lt;/span&gt;(&lt;span style=&quot;color: #9cdcfe;&quot;&gt;id_without_first_char&lt;/span&gt;) &lt;span style=&quot;color: #c586c0;&quot;&gt;match&lt;/span&gt; &lt;span style=&quot;color: #9cdcfe;&quot;&gt;id_without_first_char&lt;/span&gt; {&lt;/div&gt;&lt;div&gt;&amp;nbsp; &amp;nbsp; &lt;span style=&quot;color: #ce9178;&quot;&gt;&quot;ar&quot;&lt;/span&gt; =&amp;gt; &lt;span style=&quot;color: #4ec9b0;&quot;&gt;Kind&lt;/span&gt;::&lt;span style=&quot;color: #4fc1ff;&quot;&gt;Var&lt;/span&gt;,&lt;/div&gt;&lt;div&gt;&amp;nbsp; &amp;nbsp; &lt;span style=&quot;color: #ce9178;&quot;&gt;&quot;oid&quot;&lt;/span&gt; =&amp;gt; &lt;span style=&quot;color: #4ec9b0;&quot;&gt;Kind&lt;/span&gt;::&lt;span style=&quot;color: #4fc1ff;&quot;&gt;Void&lt;/span&gt;,&lt;/div&gt;&lt;div&gt;&amp;nbsp; &amp;nbsp; &lt;span style=&quot;color: #9cdcfe;&quot;&gt;_&lt;/span&gt; =&amp;gt; &lt;span style=&quot;color: #4ec9b0;&quot;&gt;Kind&lt;/span&gt;::&lt;span style=&quot;color: #4fc1ff;&quot;&gt;Ident&lt;/span&gt;,&lt;/div&gt;&lt;div&gt;});&lt;/div&gt;&lt;div&gt;&lt;div style=&quot;line-height: 22px;&quot;&gt;&lt;div&gt;&lt;span style=&quot;color: #569cd6;&quot;&gt;macro_rules&lt;/span&gt;&lt;span style=&quot;color: #569cd6;&quot;&gt;!&lt;/span&gt; &lt;span style=&quot;color: #569cd6;&quot;&gt;ascii_identifier_handler&lt;/span&gt; {&lt;/div&gt;&lt;div&gt;&amp;nbsp; &amp;nbsp; ($&lt;span style=&quot;color: #9cdcfe;&quot;&gt;id&lt;/span&gt;:&lt;span style=&quot;color: #9cdcfe;&quot;&gt;ident&lt;/span&gt;($&lt;span style=&quot;color: #9cdcfe;&quot;&gt;str&lt;/span&gt;:&lt;span style=&quot;color: #9cdcfe;&quot;&gt;ident&lt;/span&gt;) $&lt;span style=&quot;color: #9cdcfe;&quot;&gt;body&lt;/span&gt;:&lt;span style=&quot;color: #9cdcfe;&quot;&gt;expr&lt;/span&gt;) =&amp;gt; {&lt;/div&gt;&lt;div&gt;&amp;nbsp; &amp;nbsp; &amp;nbsp; &amp;nbsp; &lt;span style=&quot;color: #dcdcaa;&quot;&gt;byte_handler!&lt;/span&gt;($&lt;span style=&quot;color: #9cdcfe;&quot;&gt;id&lt;/span&gt;(&lt;span style=&quot;color: #9cdcfe;&quot;&gt;lexer&lt;/span&gt;) {&lt;/div&gt;&lt;div&gt;&lt;span style=&quot;color: #6a9955;&quot;&gt;&amp;nbsp; &amp;nbsp; &amp;nbsp; &amp;nbsp; &amp;nbsp; &amp;nbsp; &lt;/span&gt;&lt;span style=&quot;color: #6a9955;&quot;&gt;// SAFETY: This macro is only used for ASCII characters&lt;/span&gt;&lt;/div&gt;&lt;div&gt;&amp;nbsp; &amp;nbsp; &amp;nbsp; &amp;nbsp; &amp;nbsp; &amp;nbsp; &lt;span style=&quot;color: #569cd6;&quot;&gt;let&lt;/span&gt; $&lt;span style=&quot;color: #9cdcfe;&quot;&gt;str&lt;/span&gt; = &lt;span style=&quot;color: #569cd6;&quot;&gt;unsafe&lt;/span&gt; { &lt;span style=&quot;color: #9cdcfe;&quot;&gt;lexer&lt;/span&gt;.&lt;span style=&quot;color: #dcdcaa;&quot;&gt;identifier_name_handler&lt;/span&gt;() };&lt;/div&gt;&lt;div&gt;&amp;nbsp; &amp;nbsp; &amp;nbsp; &amp;nbsp; &amp;nbsp; &amp;nbsp; $&lt;span style=&quot;color: #9cdcfe;&quot;&gt;body&lt;/span&gt;&lt;/div&gt;&lt;div&gt;&amp;nbsp; &amp;nbsp; &amp;nbsp; &amp;nbsp; });&lt;/div&gt;&lt;div&gt;&amp;nbsp; &amp;nbsp; };&lt;/div&gt;&lt;div&gt;}&lt;/div&gt;&lt;/div&gt;&lt;/div&gt;&lt;div&gt;&lt;br&gt;&lt;/div&gt;&lt;/div&gt;&lt;/div&gt;" style="whiteSpace=wrap;html=1;align=left;rounded=0;strokeWidth=2;verticalAlign=top;spacing=0;" parent="1" vertex="1">
          <mxGeometry x="980" y="700" width="720" height="60" as="geometry" />
        </mxCell>
        <mxCell id="nU4OC9a3Mu2xvyX8Yyjs-9" value="" style="edgeStyle=orthogonalEdgeStyle;rounded=0;orthogonalLoop=1;jettySize=auto;html=1;strokeWidth=2;verticalAlign=top;spacing=0;exitX=1;exitY=1;exitDx=0;exitDy=0;" edge="1" parent="1" source="nU4OC9a3Mu2xvyX8Yyjs-1" target="nU4OC9a3Mu2xvyX8Yyjs-8">
          <mxGeometry relative="1" as="geometry">
            <Array as="points">
              <mxPoint x="1802" y="1640" />
              <mxPoint x="1802" y="2000" />
            </Array>
          </mxGeometry>
        </mxCell>
        <mxCell id="nU4OC9a3Mu2xvyX8Yyjs-1" value="&lt;div style=&quot;color: rgb(212, 212, 212); background-color: rgb(30, 30, 30); font-family: Consolas, &amp;quot;Courier New&amp;quot;, monospace; font-size: 16px; line-height: 22px; white-space: pre;&quot;&gt;&lt;div&gt;&amp;nbsp; &amp;nbsp; &lt;span style=&quot;color: #569cd6;&quot;&gt;pub&lt;/span&gt;(&lt;span style=&quot;color: #569cd6;&quot;&gt;super&lt;/span&gt;) &lt;span style=&quot;color: #569cd6;&quot;&gt;unsafe&lt;/span&gt; &lt;span style=&quot;color: #569cd6;&quot;&gt;fn&lt;/span&gt; &lt;span style=&quot;color: rgb(220, 220, 170); text-decoration-line: underline;&quot;&gt;identifier_name_handler&lt;/span&gt;(&amp;amp;&lt;span style=&quot;color: #569cd6;&quot;&gt;mut&lt;/span&gt; &lt;span style=&quot;color: rgb(86, 156, 214); text-decoration-line: underline;&quot;&gt;self&lt;/span&gt;) -&amp;gt; &amp;amp;&lt;span style=&quot;color: #569cd6;&quot;&gt;&#39;&lt;/span&gt;&lt;span style=&quot;color: #569cd6;&quot;&gt;a&lt;/span&gt; &lt;span style=&quot;color: #4ec9b0;&quot;&gt;str&lt;/span&gt; {&lt;/div&gt;&lt;div&gt;&lt;span style=&quot;color: #6a9955;&quot;&gt;&amp;nbsp; &amp;nbsp; &amp;nbsp; &lt;/span&gt;&lt;/div&gt;&lt;div&gt;&amp;nbsp; &amp;nbsp; &amp;nbsp; &amp;nbsp; &lt;span style=&quot;color: #569cd6;&quot;&gt;let&lt;/span&gt; &lt;span style=&quot;color: #9cdcfe;&quot;&gt;after_first&lt;/span&gt; = &lt;span style=&quot;color: rgb(86, 156, 214); text-decoration-line: underline;&quot;&gt;self&lt;/span&gt;.&lt;span style=&quot;color: #9cdcfe;&quot;&gt;source&lt;/span&gt;.&lt;span style=&quot;color: #dcdcaa;&quot;&gt;position&lt;/span&gt;().&lt;span style=&quot;color: #dcdcaa;&quot;&gt;add&lt;/span&gt;(&lt;span style=&quot;color: #b5cea8;&quot;&gt;1&lt;/span&gt;);&lt;/div&gt;&lt;div&gt;&amp;nbsp; &amp;nbsp; &amp;nbsp; &amp;nbsp; &lt;span style=&quot;color: #569cd6;&quot;&gt;let&lt;/span&gt; &lt;span style=&quot;color: #9cdcfe;&quot;&gt;next_byte&lt;/span&gt; = &lt;span style=&quot;color: #569cd6;&quot;&gt;byte_search&lt;/span&gt;&lt;span style=&quot;color: #569cd6;&quot;&gt;!&lt;/span&gt; {&lt;/div&gt;&lt;div&gt;&amp;nbsp; &amp;nbsp; &amp;nbsp; &amp;nbsp; &amp;nbsp; &amp;nbsp; &lt;span style=&quot;color: #9cdcfe;&quot;&gt;lexer&lt;/span&gt;: &lt;span style=&quot;color: rgb(86, 156, 214); text-decoration-line: underline;&quot;&gt;self&lt;/span&gt;,&lt;/div&gt;&lt;div&gt;&amp;nbsp; &amp;nbsp; &amp;nbsp; &amp;nbsp; &amp;nbsp; &amp;nbsp; &lt;span style=&quot;color: #9cdcfe;&quot;&gt;table&lt;/span&gt;: &lt;span style=&quot;color: #9cdcfe;&quot;&gt;NOT_ASCII_ID_CONTINUE_TABLE&lt;/span&gt;,&lt;/div&gt;&lt;div&gt;&amp;nbsp; &amp;nbsp; &amp;nbsp; &amp;nbsp; &amp;nbsp; &amp;nbsp; &lt;span style=&quot;color: #9cdcfe;&quot;&gt;start&lt;/span&gt;: &lt;span style=&quot;color: #9cdcfe;&quot;&gt;after_first&lt;/span&gt;,&lt;/div&gt;&lt;div&gt;&amp;nbsp; &amp;nbsp; &amp;nbsp; &amp;nbsp; &amp;nbsp; &amp;nbsp; &lt;span style=&quot;color: #9cdcfe;&quot;&gt;handle_eof&lt;/span&gt;: {&lt;/div&gt;&lt;div&gt;&amp;nbsp; &amp;nbsp; &amp;nbsp; &amp;nbsp; &amp;nbsp; &amp;nbsp; &amp;nbsp; &amp;nbsp; &lt;span style=&quot;color: #c586c0;&quot;&gt;return&lt;/span&gt; &lt;span style=&quot;color: #569cd6;&quot;&gt;unsafe&lt;/span&gt; { &lt;span style=&quot;color: rgb(86, 156, 214); text-decoration-line: underline;&quot;&gt;self&lt;/span&gt;.&lt;span style=&quot;color: #9cdcfe;&quot;&gt;source&lt;/span&gt;.&lt;span style=&quot;color: #dcdcaa;&quot;&gt;str_from_pos_to_current_unchecked&lt;/span&gt;(&lt;span style=&quot;color: #9cdcfe;&quot;&gt;after_first&lt;/span&gt;) };&lt;/div&gt;&lt;div&gt;&amp;nbsp; &amp;nbsp; &amp;nbsp; &amp;nbsp; &amp;nbsp; &amp;nbsp; },&lt;/div&gt;&lt;div&gt;&amp;nbsp; &amp;nbsp; &amp;nbsp; &amp;nbsp; };&lt;/div&gt;&lt;div&gt;&amp;nbsp; &amp;nbsp; &amp;nbsp; &amp;nbsp; &lt;span style=&quot;color: #c586c0;&quot;&gt;if&lt;/span&gt; !&lt;span style=&quot;color: #9cdcfe;&quot;&gt;next_byte&lt;/span&gt;.&lt;span style=&quot;color: #dcdcaa;&quot;&gt;is_ascii&lt;/span&gt;() {&lt;/div&gt;&lt;div&gt;&amp;nbsp; &amp;nbsp; &amp;nbsp; &amp;nbsp; &amp;nbsp; &amp;nbsp; &lt;span style=&quot;color: #c586c0;&quot;&gt;return&lt;/span&gt; &lt;span style=&quot;color: #dcdcaa;&quot;&gt;cold_branch&lt;/span&gt;(|| {&lt;/div&gt;&lt;div&gt;&amp;nbsp; &amp;nbsp; &amp;nbsp; &amp;nbsp; &amp;nbsp; &amp;nbsp; &amp;nbsp; &amp;nbsp; &lt;span style=&quot;color: #569cd6;&quot;&gt;let&lt;/span&gt; &lt;span style=&quot;color: #9cdcfe;&quot;&gt;start_pos&lt;/span&gt; = &lt;span style=&quot;color: #569cd6;&quot;&gt;unsafe&lt;/span&gt; { &lt;span style=&quot;color: #9cdcfe;&quot;&gt;after_first&lt;/span&gt;.&lt;span style=&quot;color: #dcdcaa;&quot;&gt;sub&lt;/span&gt;(&lt;span style=&quot;color: #b5cea8;&quot;&gt;1&lt;/span&gt;) };&lt;/div&gt;&lt;div&gt;&amp;nbsp; &amp;nbsp; &amp;nbsp; &amp;nbsp; &amp;nbsp; &amp;nbsp; &amp;nbsp; &amp;nbsp; &amp;amp;&lt;span style=&quot;color: rgb(86, 156, 214); text-decoration-line: underline;&quot;&gt;self&lt;/span&gt;.&lt;span style=&quot;color: rgb(220, 220, 170); text-decoration-line: underline;&quot;&gt;identifier_tail_unicode&lt;/span&gt;(&lt;span style=&quot;color: #9cdcfe;&quot;&gt;start_pos&lt;/span&gt;)[&lt;span style=&quot;color: #b5cea8;&quot;&gt;1&lt;/span&gt;..]&lt;/div&gt;&lt;div&gt;&amp;nbsp; &amp;nbsp; &amp;nbsp; &amp;nbsp; &amp;nbsp; &amp;nbsp; });&lt;/div&gt;&lt;div&gt;&amp;nbsp; &amp;nbsp; &amp;nbsp; &amp;nbsp; }&lt;/div&gt;&lt;div&gt;&amp;nbsp; &amp;nbsp; &amp;nbsp; &amp;nbsp; &lt;span style=&quot;color: #c586c0;&quot;&gt;if&lt;/span&gt; &lt;span style=&quot;color: #9cdcfe;&quot;&gt;next_byte&lt;/span&gt; == &lt;span style=&quot;color: #b5cea8;&quot;&gt;b&#39;&lt;/span&gt;&lt;span style=&quot;color: #d7ba7d;&quot;&gt;\\&lt;/span&gt;&lt;span style=&quot;color: #b5cea8;&quot;&gt;&#39;&lt;/span&gt; {&lt;/div&gt;&lt;div&gt;&amp;nbsp; &amp;nbsp; &amp;nbsp; &amp;nbsp; &amp;nbsp; &amp;nbsp; &lt;span style=&quot;color: #c586c0;&quot;&gt;return&lt;/span&gt; &lt;span style=&quot;color: #dcdcaa;&quot;&gt;cold_branch&lt;/span&gt;(|| {&lt;/div&gt;&lt;div&gt;&amp;nbsp; &amp;nbsp; &amp;nbsp; &amp;nbsp; &amp;nbsp; &amp;nbsp; &amp;nbsp; &amp;nbsp; &lt;span style=&quot;color: #569cd6;&quot;&gt;let&lt;/span&gt; &lt;span style=&quot;color: #9cdcfe;&quot;&gt;start_pos&lt;/span&gt; = &lt;span style=&quot;color: #569cd6;&quot;&gt;unsafe&lt;/span&gt; { &lt;span style=&quot;color: #9cdcfe;&quot;&gt;after_first&lt;/span&gt;.&lt;span style=&quot;color: #dcdcaa;&quot;&gt;sub&lt;/span&gt;(&lt;span style=&quot;color: #b5cea8;&quot;&gt;1&lt;/span&gt;) };&lt;/div&gt;&lt;div&gt;&amp;nbsp; &amp;nbsp; &amp;nbsp; &amp;nbsp; &amp;nbsp; &amp;nbsp; &amp;nbsp; &amp;nbsp; &amp;amp;&lt;span style=&quot;color: rgb(86, 156, 214); text-decoration-line: underline;&quot;&gt;self&lt;/span&gt;.&lt;span style=&quot;color: rgb(220, 220, 170); text-decoration-line: underline;&quot;&gt;identifier_backslash&lt;/span&gt;(&lt;span style=&quot;color: #9cdcfe;&quot;&gt;start_pos&lt;/span&gt;, &lt;span style=&quot;color: #569cd6;&quot;&gt;false&lt;/span&gt;)[&lt;span style=&quot;color: #b5cea8;&quot;&gt;1&lt;/span&gt;..]&lt;/div&gt;&lt;div&gt;&amp;nbsp; &amp;nbsp; &amp;nbsp; &amp;nbsp; &amp;nbsp; &amp;nbsp; });&lt;/div&gt;&lt;div&gt;&amp;nbsp; &amp;nbsp; &amp;nbsp; &amp;nbsp; }&lt;/div&gt;&lt;div&gt;&amp;nbsp; &amp;nbsp; &amp;nbsp; &amp;nbsp; &lt;span style=&quot;color: #569cd6;&quot;&gt;unsafe&lt;/span&gt; { &lt;span style=&quot;color: rgb(86, 156, 214); text-decoration-line: underline;&quot;&gt;self&lt;/span&gt;.&lt;span style=&quot;color: #9cdcfe;&quot;&gt;source&lt;/span&gt;.&lt;span style=&quot;color: #dcdcaa;&quot;&gt;str_from_pos_to_current_unchecked&lt;/span&gt;(&lt;span style=&quot;color: #9cdcfe;&quot;&gt;after_first&lt;/span&gt;) }&lt;/div&gt;&lt;div&gt;&amp;nbsp; &amp;nbsp; }&lt;/div&gt;&lt;/div&gt;" style="whiteSpace=wrap;html=1;align=left;rounded=0;strokeWidth=2;verticalAlign=top;spacing=0;" vertex="1" parent="1">
          <mxGeometry x="980" y="1100" width="820" height="540" as="geometry" />
        </mxCell>
        <mxCell id="nU4OC9a3Mu2xvyX8Yyjs-4" value="&lt;div style=&quot;color: rgb(212, 212, 212); background-color: rgb(30, 30, 30); font-family: Consolas, &amp;quot;Courier New&amp;quot;, monospace; font-size: 16px; line-height: 22px; white-space: pre;&quot;&gt;&lt;div&gt;&lt;span style=&quot;color: #569cd6;&quot;&gt;static&lt;/span&gt; &lt;span style=&quot;color: #9cdcfe;&quot;&gt;NOT_ASCII_ID_CONTINUE_TABLE&lt;/span&gt;: &lt;span style=&quot;color: #4ec9b0;&quot;&gt;SafeByteMatchTable&lt;/span&gt; =&lt;/div&gt;&lt;div&gt;&amp;nbsp; &amp;nbsp; &lt;span style=&quot;color: #569cd6;&quot;&gt;safe_byte_match_table&lt;/span&gt;&lt;span style=&quot;color: #569cd6;&quot;&gt;!&lt;/span&gt;(|&lt;span style=&quot;color: #9cdcfe;&quot;&gt;b&lt;/span&gt;| !(&lt;span style=&quot;color: #b5cea8;&quot;&gt;b&lt;/span&gt;.&lt;span style=&quot;color: #dcdcaa;&quot;&gt;is_ascii_alphanumeric&lt;/span&gt;() || &lt;span style=&quot;color: #b5cea8;&quot;&gt;b&lt;/span&gt; == &lt;span style=&quot;color: #b5cea8;&quot;&gt;b&#39;_&#39;&lt;/span&gt; || &lt;span style=&quot;color: #b5cea8;&quot;&gt;b&lt;/span&gt; == &lt;span style=&quot;color: #b5cea8;&quot;&gt;b&#39;$&#39;&lt;/span&gt;));&lt;/div&gt;&lt;br&gt;&lt;/div&gt;&lt;div style=&quot;color: rgb(212, 212, 212); background-color: rgb(30, 30, 30); font-family: Consolas, &amp;quot;Courier New&amp;quot;, monospace; font-size: 16px; line-height: 22px; white-space: pre;&quot;&gt;&lt;div style=&quot;line-height: 22px;&quot;&gt;&lt;div&gt;&lt;span style=&quot;color: #569cd6;&quot;&gt;macro_rules&lt;/span&gt;&lt;span style=&quot;color: #569cd6;&quot;&gt;!&lt;/span&gt; &lt;span style=&quot;color: #569cd6;&quot;&gt;safe_byte_match_table&lt;/span&gt; {&lt;/div&gt;&lt;div&gt;&amp;nbsp; &amp;nbsp; (|$&lt;span style=&quot;color: #9cdcfe;&quot;&gt;byte&lt;/span&gt;:&lt;span style=&quot;color: #9cdcfe;&quot;&gt;ident&lt;/span&gt;| $&lt;span style=&quot;color: #9cdcfe;&quot;&gt;res&lt;/span&gt;:&lt;span style=&quot;color: #9cdcfe;&quot;&gt;expr&lt;/span&gt;) =&amp;gt; {{&lt;/div&gt;&lt;div&gt;&amp;nbsp; &amp;nbsp; &amp;nbsp; &amp;nbsp; &lt;span style=&quot;color: #569cd6;&quot;&gt;use&lt;/span&gt; &lt;span style=&quot;color: #569cd6;&quot;&gt;crate&lt;/span&gt;::&lt;span style=&quot;color: #4ec9b0;&quot;&gt;lexer&lt;/span&gt;::&lt;span style=&quot;color: #4ec9b0;&quot;&gt;search&lt;/span&gt;::&lt;span style=&quot;color: #4ec9b0;&quot;&gt;SafeByteMatchTable&lt;/span&gt;;&lt;/div&gt;&lt;div&gt;&lt;span style=&quot;color: #6a9955;&quot;&gt;&amp;nbsp; &amp;nbsp; &amp;nbsp; &amp;nbsp; &lt;/span&gt;&lt;span style=&quot;color: #6a9955;&quot;&gt;// Clippy creates warnings because e.g. `safe_byte_match_table!(|b| b == 0)`&lt;/span&gt;&lt;/div&gt;&lt;div&gt;&lt;span style=&quot;color: #6a9955;&quot;&gt;&amp;nbsp; &amp;nbsp; &amp;nbsp; &amp;nbsp; &lt;/span&gt;&lt;span style=&quot;color: #6a9955;&quot;&gt;// is expanded to `SafeByteMatchTable([0 == 0, ... ])`&lt;/span&gt;&lt;/div&gt;&lt;div&gt;&amp;nbsp; &amp;nbsp; &amp;nbsp; &amp;nbsp; #[allow(clippy::eq_op)]&lt;/div&gt;&lt;div&gt;&amp;nbsp; &amp;nbsp; &amp;nbsp; &amp;nbsp; &lt;span style=&quot;color: #569cd6;&quot;&gt;const&lt;/span&gt; TABLE: &lt;span style=&quot;color: #4ec9b0;&quot;&gt;SafeByteMatchTable&lt;/span&gt; = &lt;span style=&quot;color: #4ec9b0;&quot;&gt;seq_macro&lt;/span&gt;::&lt;span style=&quot;color: #dcdcaa;&quot;&gt;seq!&lt;/span&gt;($&lt;span style=&quot;color: #9cdcfe;&quot;&gt;byte&lt;/span&gt; &lt;span style=&quot;color: #c586c0;&quot;&gt;in&lt;/span&gt; &lt;span style=&quot;color: #b5cea8;&quot;&gt;0&lt;/span&gt;&lt;span style=&quot;color: #b5cea8;&quot;&gt;u8&lt;/span&gt;..=&lt;span style=&quot;color: #b5cea8;&quot;&gt;255&lt;/span&gt; {&lt;/div&gt;&lt;div&gt;&amp;nbsp; &amp;nbsp; &amp;nbsp; &amp;nbsp; &amp;nbsp; &amp;nbsp; &lt;span style=&quot;color: #4ec9b0;&quot;&gt;SafeByteMatchTable&lt;/span&gt;::&lt;span style=&quot;color: #dcdcaa;&quot;&gt;new&lt;/span&gt;([#($&lt;span style=&quot;color: #9cdcfe;&quot;&gt;res&lt;/span&gt;,)*])&lt;/div&gt;&lt;div&gt;&amp;nbsp; &amp;nbsp; &amp;nbsp; &amp;nbsp; });&lt;/div&gt;&lt;div&gt;&amp;nbsp; &amp;nbsp; &amp;nbsp; &amp;nbsp; TABLE&lt;/div&gt;&lt;div&gt;&amp;nbsp; &amp;nbsp; }};&lt;/div&gt;&lt;div&gt;}&lt;/div&gt;&lt;/div&gt;&lt;/div&gt;" style="html=1;align=left;rounded=0;strokeWidth=2;fillStyle=auto;gradientColor=none;verticalAlign=top;horizontal=1;whiteSpace=wrap;spacing=0;" vertex="1" parent="1">
          <mxGeometry x="1840" y="970" width="760" height="70" as="geometry" />
        </mxCell>
        <mxCell id="nU4OC9a3Mu2xvyX8Yyjs-16" value="" style="edgeStyle=orthogonalEdgeStyle;shape=connector;rounded=0;orthogonalLoop=1;jettySize=auto;html=1;strokeColor=default;strokeWidth=2;align=center;verticalAlign=top;spacing=0;fontFamily=Helvetica;fontSize=11;fontColor=default;labelBackgroundColor=default;endArrow=classic;exitX=1;exitY=0;exitDx=0;exitDy=0;" edge="1" parent="1" source="nU4OC9a3Mu2xvyX8Yyjs-8" target="nU4OC9a3Mu2xvyX8Yyjs-15">
          <mxGeometry relative="1" as="geometry">
            <Array as="points">
              <mxPoint x="2750" y="1330" />
              <mxPoint x="2750" y="1330" />
            </Array>
          </mxGeometry>
        </mxCell>
        <mxCell id="nU4OC9a3Mu2xvyX8Yyjs-8" value="&lt;div style=&quot;color: rgb(212, 212, 212); background-color: rgb(30, 30, 30); font-family: Consolas, &amp;quot;Courier New&amp;quot;, monospace; font-size: 16px; line-height: 22px; white-space: pre;&quot;&gt;&lt;div&gt;&lt;span style=&quot;color: #569cd6;&quot;&gt;macro_rules&lt;/span&gt;&lt;span style=&quot;color: #569cd6;&quot;&gt;!&lt;/span&gt; &lt;span style=&quot;color: #569cd6;&quot;&gt;byte_search&lt;/span&gt; {&lt;/div&gt;&lt;div&gt;&amp;nbsp; &amp;nbsp; (&lt;/div&gt;&lt;div&gt;&amp;nbsp; &amp;nbsp; &amp;nbsp; &amp;nbsp; &lt;span style=&quot;color: #9cdcfe;&quot;&gt;lexer&lt;/span&gt;: $&lt;span style=&quot;color: #9cdcfe;&quot;&gt;lexer&lt;/span&gt;:&lt;span style=&quot;color: #9cdcfe;&quot;&gt;ident&lt;/span&gt;,&lt;/div&gt;&lt;div&gt;&amp;nbsp; &amp;nbsp; &amp;nbsp; &amp;nbsp; &lt;span style=&quot;color: #9cdcfe;&quot;&gt;table&lt;/span&gt;: $&lt;span style=&quot;color: #9cdcfe;&quot;&gt;table&lt;/span&gt;:&lt;span style=&quot;color: #9cdcfe;&quot;&gt;ident&lt;/span&gt;,&lt;/div&gt;&lt;div&gt;&amp;nbsp; &amp;nbsp; &amp;nbsp; &amp;nbsp; &lt;span style=&quot;color: #9cdcfe;&quot;&gt;start&lt;/span&gt;: $&lt;span style=&quot;color: #9cdcfe;&quot;&gt;start&lt;/span&gt;:&lt;span style=&quot;color: #9cdcfe;&quot;&gt;ident&lt;/span&gt;,&lt;/div&gt;&lt;div&gt;&amp;nbsp; &amp;nbsp; &amp;nbsp; &amp;nbsp; &lt;span style=&quot;color: #9cdcfe;&quot;&gt;continue_if&lt;/span&gt;: ($&lt;span style=&quot;color: #9cdcfe;&quot;&gt;byte&lt;/span&gt;:&lt;span style=&quot;color: #9cdcfe;&quot;&gt;ident&lt;/span&gt;, $&lt;span style=&quot;color: #9cdcfe;&quot;&gt;pos&lt;/span&gt;:&lt;span style=&quot;color: #9cdcfe;&quot;&gt;ident&lt;/span&gt;) $&lt;span style=&quot;color: #9cdcfe;&quot;&gt;should_continue&lt;/span&gt;:&lt;span style=&quot;color: #9cdcfe;&quot;&gt;expr&lt;/span&gt;,&lt;/div&gt;&lt;div&gt;&amp;nbsp; &amp;nbsp; &amp;nbsp; &amp;nbsp; &lt;span style=&quot;color: #9cdcfe;&quot;&gt;handle_eof&lt;/span&gt;: $&lt;span style=&quot;color: #9cdcfe;&quot;&gt;eof_handler&lt;/span&gt;:&lt;span style=&quot;color: #9cdcfe;&quot;&gt;expr&lt;/span&gt;,&lt;/div&gt;&lt;div&gt;&amp;nbsp; &amp;nbsp; ) =&amp;gt; {{&lt;/div&gt;&lt;div&gt;&amp;nbsp; &amp;nbsp; &amp;nbsp; &amp;nbsp; $&lt;span style=&quot;color: #9cdcfe;&quot;&gt;table&lt;/span&gt;.&lt;span style=&quot;color: #dcdcaa;&quot;&gt;use_table&lt;/span&gt;();&lt;/div&gt;&lt;br&gt;&lt;div&gt;&amp;nbsp; &amp;nbsp; &amp;nbsp; &amp;nbsp; &lt;span style=&quot;color: #569cd6;&quot;&gt;let&lt;/span&gt; &lt;span style=&quot;color: #569cd6;&quot;&gt;mut&lt;/span&gt; $&lt;span style=&quot;color: #9cdcfe;&quot;&gt;pos&lt;/span&gt; = $&lt;span style=&quot;color: #9cdcfe;&quot;&gt;start&lt;/span&gt;;&lt;/div&gt;&lt;div&gt;&amp;nbsp; &amp;nbsp; &amp;nbsp; &amp;nbsp; &#39;&lt;span style=&quot;color: #4ec9b0;&quot;&gt;outer&lt;/span&gt;: &lt;span style=&quot;color: #c586c0;&quot;&gt;loop&lt;/span&gt; {&lt;/div&gt;&lt;div&gt;&amp;nbsp; &amp;nbsp; &amp;nbsp; &amp;nbsp; &amp;nbsp; &amp;nbsp; &lt;span style=&quot;color: #569cd6;&quot;&gt;let&lt;/span&gt; $&lt;span style=&quot;color: #9cdcfe;&quot;&gt;byte&lt;/span&gt; = &lt;span style=&quot;color: #c586c0;&quot;&gt;if&lt;/span&gt; $&lt;span style=&quot;color: #9cdcfe;&quot;&gt;pos&lt;/span&gt;.&lt;span style=&quot;color: #dcdcaa;&quot;&gt;addr&lt;/span&gt;() &amp;lt;= $&lt;span style=&quot;color: #9cdcfe;&quot;&gt;lexer&lt;/span&gt;.source.&lt;span style=&quot;color: #dcdcaa;&quot;&gt;end_for_batch_search_addr&lt;/span&gt;() {&lt;/div&gt;&lt;div&gt;&lt;span style=&quot;color: rgb(106, 153, 85);&quot;&gt;            &lt;/span&gt;&lt;span style=&quot;color: rgb(106, 153, 85);&quot;&gt;// SAFETY: 剩下的字节够一次 batch search &lt;/span&gt;&lt;br&gt;&lt;/div&gt;&lt;div&gt;&amp;nbsp; &amp;nbsp; &amp;nbsp; &amp;nbsp; &amp;nbsp; &amp;nbsp; &amp;nbsp; &amp;nbsp; &#39;&lt;span style=&quot;color: #4ec9b0;&quot;&gt;inner&lt;/span&gt;: &lt;span style=&quot;color: #c586c0;&quot;&gt;loop&lt;/span&gt; {&lt;/div&gt;&lt;div&gt;&amp;nbsp; &amp;nbsp; &amp;nbsp; &amp;nbsp; &amp;nbsp; &amp;nbsp; &amp;nbsp; &amp;nbsp; &amp;nbsp; &amp;nbsp; &lt;span style=&quot;color: #569cd6;&quot;&gt;for&lt;/span&gt; &lt;span style=&quot;color: #9cdcfe;&quot;&gt;_i&lt;/span&gt; &lt;span style=&quot;color: #c586c0;&quot;&gt;in&lt;/span&gt; &lt;span style=&quot;color: #b5cea8;&quot;&gt;0&lt;/span&gt;..&lt;span style=&quot;color: #569cd6;&quot;&gt;crate&lt;/span&gt;::&lt;span style=&quot;color: #4ec9b0;&quot;&gt;lexer&lt;/span&gt;::&lt;span style=&quot;color: #4ec9b0;&quot;&gt;search&lt;/span&gt;::SEARCH_BATCH_SIZE {&lt;/div&gt;&lt;div&gt;&lt;span style=&quot;color: #6a9955;&quot;&gt;&amp;nbsp; &amp;nbsp; &amp;nbsp; &amp;nbsp; &amp;nbsp; &amp;nbsp; &amp;nbsp; &amp;nbsp; &amp;nbsp; &amp;nbsp; &amp;nbsp; &amp;nbsp;&lt;/span&gt;&lt;/div&gt;&lt;div&gt;&amp;nbsp; &amp;nbsp; &amp;nbsp; &amp;nbsp; &amp;nbsp; &amp;nbsp; &amp;nbsp; &amp;nbsp; &amp;nbsp; &amp;nbsp; &amp;nbsp; &amp;nbsp; &lt;span style=&quot;color: #569cd6;&quot;&gt;let&lt;/span&gt; &lt;span style=&quot;color: #9cdcfe;&quot;&gt;byte&lt;/span&gt; = &lt;span style=&quot;color: #569cd6;&quot;&gt;unsafe&lt;/span&gt; { $&lt;span style=&quot;color: #9cdcfe;&quot;&gt;pos&lt;/span&gt;.&lt;span style=&quot;color: #dcdcaa;&quot;&gt;read&lt;/span&gt;() };&lt;/div&gt;&lt;div&gt;&amp;nbsp; &amp;nbsp; &amp;nbsp; &amp;nbsp; &amp;nbsp; &amp;nbsp; &amp;nbsp; &amp;nbsp; &amp;nbsp; &amp;nbsp; &amp;nbsp; &amp;nbsp; &lt;span style=&quot;color: #c586c0;&quot;&gt;if&lt;/span&gt; $&lt;span style=&quot;color: #9cdcfe;&quot;&gt;table&lt;/span&gt;.&lt;span style=&quot;color: #dcdcaa;&quot;&gt;matches&lt;/span&gt;(&lt;span style=&quot;color: #9cdcfe;&quot;&gt;byte&lt;/span&gt;) {&lt;/div&gt;&lt;div&gt;&amp;nbsp; &amp;nbsp; &amp;nbsp; &amp;nbsp; &amp;nbsp; &amp;nbsp; &amp;nbsp; &amp;nbsp; &amp;nbsp; &amp;nbsp; &amp;nbsp; &amp;nbsp; &amp;nbsp; &amp;nbsp; &lt;span style=&quot;color: #c586c0;&quot;&gt;break&lt;/span&gt; &#39;&lt;span style=&quot;color: #4ec9b0;&quot;&gt;inner&lt;/span&gt; &lt;span style=&quot;color: #9cdcfe;&quot;&gt;byte&lt;/span&gt;;&lt;/div&gt;&lt;div&gt;&amp;nbsp; &amp;nbsp; &amp;nbsp; &amp;nbsp; &amp;nbsp; &amp;nbsp; &amp;nbsp; &amp;nbsp; &amp;nbsp; &amp;nbsp; &amp;nbsp; &amp;nbsp; }&lt;/div&gt;&lt;div&gt;&amp;nbsp; &amp;nbsp; &amp;nbsp; &amp;nbsp; &amp;nbsp; &amp;nbsp; &amp;nbsp; &amp;nbsp; &amp;nbsp; &amp;nbsp; &amp;nbsp; &amp;nbsp; $&lt;span style=&quot;color: #9cdcfe;&quot;&gt;pos&lt;/span&gt; = &lt;span style=&quot;color: #569cd6;&quot;&gt;unsafe&lt;/span&gt; { $&lt;span style=&quot;color: #9cdcfe;&quot;&gt;pos&lt;/span&gt;.&lt;span style=&quot;color: #dcdcaa;&quot;&gt;add&lt;/span&gt;(&lt;span style=&quot;color: #b5cea8;&quot;&gt;1&lt;/span&gt;) };&lt;/div&gt;&lt;div&gt;&amp;nbsp; &amp;nbsp; &amp;nbsp; &amp;nbsp; &amp;nbsp; &amp;nbsp; &amp;nbsp; &amp;nbsp; &amp;nbsp; &amp;nbsp; }&lt;/div&gt;&lt;div&gt;&amp;nbsp; &amp;nbsp; &amp;nbsp; &amp;nbsp; &amp;nbsp; &amp;nbsp; &amp;nbsp; &amp;nbsp; &amp;nbsp; &amp;nbsp; &lt;span style=&quot;color: #c586c0;&quot;&gt;continue&lt;/span&gt; &#39;&lt;span style=&quot;color: #4ec9b0;&quot;&gt;outer&lt;/span&gt;;       &#39;&lt;span style=&quot;color: rgb(78, 201, 176);&quot;&gt;inner&lt;/span&gt; &lt;span style=&quot;color: rgb(156, 220, 254);&quot;&gt;byte&lt;/span&gt;;&lt;/div&gt;&lt;div&gt;&amp;nbsp; &amp;nbsp; &amp;nbsp; &amp;nbsp; &amp;nbsp; &amp;nbsp; &amp;nbsp; &amp;nbsp; &amp;nbsp; &amp;nbsp; &amp;nbsp; &amp;nbsp; }&lt;/div&gt;&lt;div&gt;&amp;nbsp; &amp;nbsp; &amp;nbsp; &amp;nbsp; &amp;nbsp; &amp;nbsp; &amp;nbsp; &amp;nbsp; &amp;nbsp; &amp;nbsp; &amp;nbsp; &amp;nbsp; $&lt;span style=&quot;color: #9cdcfe;&quot;&gt;pos&lt;/span&gt; = &lt;span style=&quot;color: #569cd6;&quot;&gt;unsafe&lt;/span&gt; { $&lt;span style=&quot;color: #9cdcfe;&quot;&gt;pos&lt;/span&gt;.&lt;span style=&quot;color: #dcdcaa;&quot;&gt;add&lt;/span&gt;(&lt;span style=&quot;color: #b5cea8;&quot;&gt;1&lt;/span&gt;) };&lt;/div&gt;&lt;div&gt;&amp;nbsp; &amp;nbsp; &amp;nbsp; &amp;nbsp; &amp;nbsp; &amp;nbsp; &amp;nbsp; &amp;nbsp; &amp;nbsp; &amp;nbsp; }&lt;/div&gt;&lt;br&gt;&lt;div&gt;&lt;span style=&quot;color: #6a9955;&quot;&gt;&amp;nbsp; &amp;nbsp; &amp;nbsp; &amp;nbsp; &amp;nbsp; &amp;nbsp; &amp;nbsp; &amp;nbsp; &amp;nbsp; &amp;nbsp; &lt;/span&gt;&lt;span style=&quot;color: #6a9955;&quot;&gt;// EOF.&lt;/span&gt;&lt;/div&gt;&lt;div&gt;&amp;nbsp; &amp;nbsp; &amp;nbsp; &amp;nbsp; &amp;nbsp; &amp;nbsp; &amp;nbsp; &amp;nbsp; &amp;nbsp; &amp;nbsp; $&lt;span style=&quot;color: #9cdcfe;&quot;&gt;lexer&lt;/span&gt;.source.&lt;span style=&quot;color: #dcdcaa;&quot;&gt;set_position&lt;/span&gt;($&lt;span style=&quot;color: #9cdcfe;&quot;&gt;pos&lt;/span&gt;);&lt;/div&gt;&lt;br&gt;&lt;div&gt;&amp;nbsp; &amp;nbsp; &amp;nbsp; &amp;nbsp; &amp;nbsp; &amp;nbsp; &amp;nbsp; &amp;nbsp; &amp;nbsp; &amp;nbsp; #[allow(unused_variables, unreachable_code, clippy::diverging_sub_expression)]&lt;/div&gt;&lt;div&gt;&amp;nbsp; &amp;nbsp; &amp;nbsp; &amp;nbsp; &amp;nbsp; &amp;nbsp; &amp;nbsp; &amp;nbsp; &amp;nbsp; &amp;nbsp; {&lt;/div&gt;&lt;div&gt;&amp;nbsp; &amp;nbsp; &amp;nbsp; &amp;nbsp; &amp;nbsp; &amp;nbsp; &amp;nbsp; &amp;nbsp; &amp;nbsp; &amp;nbsp; &amp;nbsp; &amp;nbsp; &lt;span style=&quot;color: #569cd6;&quot;&gt;let&lt;/span&gt; &lt;span style=&quot;color: #9cdcfe;&quot;&gt;eof_ret&lt;/span&gt; = $&lt;span style=&quot;color: #9cdcfe;&quot;&gt;eof_handler&lt;/span&gt;;&lt;/div&gt;&lt;div&gt;&amp;nbsp; &amp;nbsp; &amp;nbsp; &amp;nbsp; &amp;nbsp; &amp;nbsp; &amp;nbsp; &amp;nbsp; &amp;nbsp; &amp;nbsp; &amp;nbsp; &amp;nbsp; &lt;span style=&quot;color: #c586c0;&quot;&gt;break&lt;/span&gt; &#39;&lt;span style=&quot;color: #4ec9b0;&quot;&gt;outer&lt;/span&gt; &lt;span style=&quot;color: #9cdcfe;&quot;&gt;eof_ret&lt;/span&gt;;&lt;/div&gt;&lt;div&gt;&amp;nbsp; &amp;nbsp; &amp;nbsp; &amp;nbsp; &amp;nbsp; &amp;nbsp; &amp;nbsp; &amp;nbsp; &amp;nbsp; &amp;nbsp; }&lt;/div&gt;&lt;div&gt;&amp;nbsp; &amp;nbsp; &amp;nbsp; &amp;nbsp; &amp;nbsp; &amp;nbsp; &amp;nbsp; &amp;nbsp; }&lt;/div&gt;&lt;div&gt;&amp;nbsp; &amp;nbsp; &amp;nbsp; &amp;nbsp; &amp;nbsp; &amp;nbsp; };&lt;/div&gt;&lt;br&gt;&lt;div&gt;&amp;nbsp; &amp;nbsp; &amp;nbsp; &amp;nbsp; &amp;nbsp; &amp;nbsp; &lt;span style=&quot;color: #c586c0;&quot;&gt;if&lt;/span&gt; $&lt;span style=&quot;color: #9cdcfe;&quot;&gt;should_continue&lt;/span&gt; {&lt;/div&gt;&lt;div&gt;&amp;nbsp; &amp;nbsp; &amp;nbsp; &amp;nbsp; &amp;nbsp; &amp;nbsp; &amp;nbsp; &amp;nbsp; $&lt;span style=&quot;color: #9cdcfe;&quot;&gt;pos&lt;/span&gt; = &lt;span style=&quot;color: #569cd6;&quot;&gt;unsafe&lt;/span&gt; { $&lt;span style=&quot;color: #9cdcfe;&quot;&gt;pos&lt;/span&gt;.&lt;span style=&quot;color: #dcdcaa;&quot;&gt;add&lt;/span&gt;(&lt;span style=&quot;color: #b5cea8;&quot;&gt;1&lt;/span&gt;) };&lt;/div&gt;&lt;div&gt;&amp;nbsp; &amp;nbsp; &amp;nbsp; &amp;nbsp; &amp;nbsp; &amp;nbsp; &amp;nbsp; &amp;nbsp; &lt;span style=&quot;color: #c586c0;&quot;&gt;continue&lt;/span&gt;;&lt;/div&gt;&lt;div&gt;&amp;nbsp; &amp;nbsp; &amp;nbsp; &amp;nbsp; &amp;nbsp; &amp;nbsp; }&lt;/div&gt;&lt;br&gt;&lt;div&gt;&amp;nbsp; &amp;nbsp; &amp;nbsp; &amp;nbsp; &amp;nbsp; &amp;nbsp; $&lt;span style=&quot;color: #9cdcfe;&quot;&gt;lexer&lt;/span&gt;.source.&lt;span style=&quot;color: #dcdcaa;&quot;&gt;set_position&lt;/span&gt;($&lt;span style=&quot;color: #9cdcfe;&quot;&gt;pos&lt;/span&gt;);&lt;/div&gt;&lt;br&gt;&lt;div&gt;&amp;nbsp; &amp;nbsp; &amp;nbsp; &amp;nbsp; &amp;nbsp; &amp;nbsp; &lt;span style=&quot;color: #c586c0;&quot;&gt;break&lt;/span&gt; $&lt;span style=&quot;color: #9cdcfe;&quot;&gt;byte&lt;/span&gt;;&lt;/div&gt;&lt;div&gt;&amp;nbsp; &amp;nbsp; &amp;nbsp; &amp;nbsp; }&lt;/div&gt;&lt;div&gt;&amp;nbsp; &amp;nbsp; }};&lt;/div&gt;&lt;div&gt;}&lt;/div&gt;&lt;/div&gt;" style="whiteSpace=wrap;html=1;align=left;rounded=0;strokeWidth=2;verticalAlign=top;spacing=0;" vertex="1" parent="1">
          <mxGeometry x="1840" y="1330" width="870" height="1240" as="geometry" />
        </mxCell>
        <mxCell id="nU4OC9a3Mu2xvyX8Yyjs-14" style="edgeStyle=orthogonalEdgeStyle;shape=connector;rounded=0;orthogonalLoop=1;jettySize=auto;html=1;exitX=1;exitY=0;exitDx=0;exitDy=0;entryX=-0.001;entryY=0.129;entryDx=0;entryDy=0;entryPerimeter=0;strokeColor=default;strokeWidth=2;align=center;verticalAlign=top;spacing=0;fontFamily=Helvetica;fontSize=11;fontColor=default;labelBackgroundColor=default;endArrow=classic;" edge="1" parent="1" source="nU4OC9a3Mu2xvyX8Yyjs-1" target="nU4OC9a3Mu2xvyX8Yyjs-4">
          <mxGeometry relative="1" as="geometry" />
        </mxCell>
        <mxCell id="nU4OC9a3Mu2xvyX8Yyjs-15" value="&lt;div style=&quot;color: rgb(212, 212, 212); background-color: rgb(30, 30, 30); font-family: Consolas, &amp;quot;Courier New&amp;quot;, monospace; font-size: 16px; line-height: 22px; white-space: pre;&quot;&gt;&lt;div&gt;&amp;nbsp; &amp;nbsp; &lt;span style=&quot;color: #569cd6;&quot;&gt;pub&lt;/span&gt;(&lt;span style=&quot;color: #569cd6;&quot;&gt;super&lt;/span&gt;) &lt;span style=&quot;color: #569cd6;&quot;&gt;fn&lt;/span&gt; &lt;span style=&quot;color: #dcdcaa;&quot;&gt;new&lt;/span&gt;(&lt;span style=&quot;color: #569cd6;&quot;&gt;mut&lt;/span&gt; &lt;span style=&quot;color: rgb(156, 220, 254); text-decoration-line: underline;&quot;&gt;source_text&lt;/span&gt;: &amp;amp;&lt;span style=&quot;color: #569cd6;&quot;&gt;&#39;&lt;/span&gt;&lt;span style=&quot;color: #569cd6;&quot;&gt;a&lt;/span&gt; &lt;span style=&quot;color: #4ec9b0;&quot;&gt;str&lt;/span&gt;, &lt;span style=&quot;color: #9cdcfe;&quot;&gt;_unique&lt;/span&gt;: &lt;span style=&quot;color: #4ec9b0;&quot;&gt;UniquePromise&lt;/span&gt;) -&amp;gt; &lt;span style=&quot;color: #569cd6;&quot;&gt;Self&lt;/span&gt; {&lt;/div&gt;&lt;div&gt;&lt;span style=&quot;color: #6a9955;&quot;&gt;&amp;nbsp; &amp;nbsp; &amp;nbsp; &amp;nbsp; &lt;/span&gt;&lt;span style=&quot;color: #6a9955;&quot;&gt;// &lt;/span&gt;&lt;span style=&quot;color: rgb(156, 220, 254);&quot;&gt;end_for_batch_search_addr&lt;/span&gt; &lt;span style=&quot;color: rgb(106, 153, 85);&quot;&gt;为source尾地址减去 32&lt;/span&gt;&lt;/div&gt;&lt;div&gt;&amp;nbsp; &amp;nbsp; &amp;nbsp; &amp;nbsp; &lt;span style=&quot;color: #569cd6;&quot;&gt;let&lt;/span&gt; &lt;span style=&quot;color: #9cdcfe;&quot;&gt;end_for_batch_search_addr&lt;/span&gt; = (&lt;span style=&quot;color: #9cdcfe;&quot;&gt;end&lt;/span&gt; &lt;span style=&quot;color: #569cd6;&quot;&gt;as&lt;/span&gt; &lt;span style=&quot;color: #4ec9b0;&quot;&gt;usize&lt;/span&gt;).&lt;span style=&quot;color: #dcdcaa;&quot;&gt;saturating_sub&lt;/span&gt;(&lt;span style=&quot;color: #4fc1ff;&quot;&gt;SEARCH_BATCH_SIZE&lt;/span&gt;);&lt;/div&gt;&lt;br&gt;&lt;div&gt;&amp;nbsp; &amp;nbsp; &amp;nbsp; &amp;nbsp; &lt;span style=&quot;color: #569cd6;&quot;&gt;Self&lt;/span&gt; { &lt;span style=&quot;color: #9cdcfe;&quot;&gt;start&lt;/span&gt;, &lt;span style=&quot;color: #9cdcfe;&quot;&gt;end&lt;/span&gt;, &lt;span style=&quot;color: #9cdcfe;&quot;&gt;ptr&lt;/span&gt;: &lt;span style=&quot;color: #9cdcfe;&quot;&gt;start&lt;/span&gt;, &lt;span style=&quot;color: #9cdcfe;&quot;&gt;end_for_batch_search_addr&lt;/span&gt;, &lt;span style=&quot;color: #9cdcfe;&quot;&gt;_marker&lt;/span&gt;: &lt;span style=&quot;color: #4ec9b0;&quot;&gt;PhantomData&lt;/span&gt; }&lt;/div&gt;&lt;div&gt;&amp;nbsp; &amp;nbsp; }&lt;/div&gt;&lt;/div&gt;" style="whiteSpace=wrap;html=1;align=left;verticalAlign=top;rounded=0;strokeWidth=2;spacing=0;" vertex="1" parent="1">
          <mxGeometry x="2770" y="1300" width="780" height="60" as="geometry" />
        </mxCell>
      </root>
    </mxGraphModel>
  </diagram>
  <diagram id="RBqc1F4doyIjdWAJSFe7" name="Page-2">
    <mxGraphModel dx="3079" dy="3023" grid="1" gridSize="10" guides="1" tooltips="1" connect="1" arrows="1" fold="1" page="1" pageScale="1" pageWidth="1700" pageHeight="1100" math="0" shadow="0">
      <root>
        <mxCell id="0" />
        <mxCell id="1" parent="0" />
        <mxCell id="MIUAk5PfHKwsW5mlS8Yd-1" value="&lt;div style=&quot;color: rgb(212, 212, 212); background-color: rgb(30, 30, 30); font-family: Consolas, &amp;quot;Courier New&amp;quot;, monospace; font-size: 16px; line-height: 22px; white-space-collapse: preserve;&quot;&gt;&lt;div&gt;    &lt;span style=&quot;color: rgb(78, 201, 176);&quot;&gt;ParserImpl&lt;/span&gt;&amp;nbsp; &amp;nbsp;&lt;/div&gt;&lt;div&gt;&lt;span style=&quot;color: #569cd6;&quot;&gt;    fn&lt;/span&gt; &lt;span style=&quot;color: rgb(220, 220, 170); text-decoration-line: underline;&quot;&gt;parse_program&lt;/span&gt;(&amp;amp;&lt;span style=&quot;color: #569cd6;&quot;&gt;mut&lt;/span&gt; &lt;span style=&quot;color: rgb(86, 156, 214); text-decoration-line: underline;&quot;&gt;self&lt;/span&gt;) -&amp;gt; &lt;span style=&quot;color: #4ec9b0;&quot;&gt;Result&lt;/span&gt;&amp;lt;&lt;span style=&quot;color: #4ec9b0;&quot;&gt;Program&lt;/span&gt;&amp;lt;&lt;span style=&quot;color: #569cd6;&quot;&gt;&#39;&lt;/span&gt;&lt;span style=&quot;color: #569cd6;&quot;&gt;a&lt;/span&gt;&amp;gt;&amp;gt; {&lt;/div&gt;&lt;div&gt;&lt;span style=&quot;color: #6a9955;&quot;&gt;&amp;nbsp; &amp;nbsp; &amp;nbsp; &amp;nbsp; &lt;/span&gt;&lt;span style=&quot;color: #6a9955;&quot;&gt;// initialize cur_token and prev_token by moving onto the first token&lt;/span&gt;&lt;/div&gt;&lt;div&gt;&amp;nbsp; &amp;nbsp; &amp;nbsp; &amp;nbsp; &lt;span style=&quot;color: rgb(86, 156, 214); text-decoration-line: underline;&quot;&gt;self&lt;/span&gt;.&lt;span style=&quot;color: rgb(220, 220, 170); text-decoration-line: underline;&quot;&gt;bump_any&lt;/span&gt;();&lt;/div&gt;&lt;br&gt;&lt;div&gt;&amp;nbsp; &amp;nbsp; &amp;nbsp; &amp;nbsp; &lt;span style=&quot;color: #569cd6;&quot;&gt;let&lt;/span&gt; &lt;span style=&quot;color: #9cdcfe;&quot;&gt;hashbang&lt;/span&gt; = &lt;span style=&quot;color: rgb(86, 156, 214); text-decoration-line: underline;&quot;&gt;self&lt;/span&gt;.&lt;span style=&quot;color: rgb(220, 220, 170); text-decoration-line: underline;&quot;&gt;parse_hashbang&lt;/span&gt;();&lt;/div&gt;&lt;div&gt;&amp;nbsp; &amp;nbsp; &amp;nbsp; &amp;nbsp; &lt;span style=&quot;color: #569cd6;&quot;&gt;let&lt;/span&gt; (&lt;span style=&quot;color: #9cdcfe;&quot;&gt;directives&lt;/span&gt;, &lt;span style=&quot;color: #9cdcfe;&quot;&gt;statements&lt;/span&gt;) =&lt;/div&gt;&lt;div&gt;&amp;nbsp; &amp;nbsp; &amp;nbsp; &amp;nbsp; &amp;nbsp; &amp;nbsp; &lt;span style=&quot;color: rgb(86, 156, 214); text-decoration-line: underline;&quot;&gt;self&lt;/span&gt;.&lt;span style=&quot;color: rgb(220, 220, 170); text-decoration-line: underline;&quot;&gt;parse_directives_and_statements&lt;/span&gt;(&lt;span style=&quot;color: #6a9955;&quot;&gt;/* is_top_level */&lt;/span&gt; &lt;span style=&quot;color: #569cd6;&quot;&gt;true&lt;/span&gt;)?;&lt;/div&gt;&lt;br&gt;&lt;div&gt;&amp;nbsp; &amp;nbsp; &amp;nbsp; &amp;nbsp; &lt;span style=&quot;color: rgb(86, 156, 214); text-decoration-line: underline;&quot;&gt;self&lt;/span&gt;.&lt;span style=&quot;color: rgb(220, 220, 170); text-decoration-line: underline;&quot;&gt;set_source_type_to_script_if_unambiguous&lt;/span&gt;();&lt;/div&gt;&lt;br&gt;&lt;div&gt;&amp;nbsp; &amp;nbsp; &amp;nbsp; &amp;nbsp; &lt;span style=&quot;color: #569cd6;&quot;&gt;let&lt;/span&gt; &lt;span style=&quot;color: #9cdcfe;&quot;&gt;span&lt;/span&gt; = &lt;span style=&quot;color: #4ec9b0;&quot;&gt;Span&lt;/span&gt;::&lt;span style=&quot;color: #dcdcaa;&quot;&gt;new&lt;/span&gt;(&lt;span style=&quot;color: #b5cea8;&quot;&gt;0&lt;/span&gt;, &lt;span style=&quot;color: rgb(86, 156, 214); text-decoration-line: underline;&quot;&gt;self&lt;/span&gt;.&lt;span style=&quot;color: #9cdcfe;&quot;&gt;source_text&lt;/span&gt;.&lt;span style=&quot;color: #dcdcaa;&quot;&gt;len&lt;/span&gt;() &lt;span style=&quot;color: #569cd6;&quot;&gt;as&lt;/span&gt; &lt;span style=&quot;color: #4ec9b0;&quot;&gt;u32&lt;/span&gt;);&lt;/div&gt;&lt;div&gt;&amp;nbsp; &amp;nbsp; &amp;nbsp; &amp;nbsp; &lt;span style=&quot;color: #4fc1ff;&quot;&gt;Ok&lt;/span&gt;(&lt;span style=&quot;color: rgb(86, 156, 214); text-decoration-line: underline;&quot;&gt;self&lt;/span&gt;.&lt;span style=&quot;color: #9cdcfe;&quot;&gt;ast&lt;/span&gt;.&lt;span style=&quot;color: #dcdcaa;&quot;&gt;program&lt;/span&gt;(&lt;span style=&quot;color: #9cdcfe;&quot;&gt;span&lt;/span&gt;, &lt;span style=&quot;color: rgb(86, 156, 214); text-decoration-line: underline;&quot;&gt;self&lt;/span&gt;.&lt;span style=&quot;color: #9cdcfe;&quot;&gt;source_type&lt;/span&gt;, &lt;span style=&quot;color: #9cdcfe;&quot;&gt;hashbang&lt;/span&gt;, &lt;span style=&quot;color: #9cdcfe;&quot;&gt;directives&lt;/span&gt;, &lt;span style=&quot;color: #9cdcfe;&quot;&gt;statements&lt;/span&gt;))&lt;/div&gt;&lt;div&gt;&amp;nbsp; &amp;nbsp; }&lt;/div&gt;&lt;/div&gt;" style="text;html=1;align=left;verticalAlign=middle;resizable=0;points=[];autosize=1;strokeColor=none;fillColor=none;fontFamily=Helvetica;fontSize=11;fontColor=default;labelBackgroundColor=default;spacing=0;horizontal=1;labelBorderColor=none;textShadow=0;" parent="1" vertex="1">
          <mxGeometry x="-1540" y="-2090" width="780" height="320" as="geometry" />
        </mxCell>
        <mxCell id="MIUAk5PfHKwsW5mlS8Yd-3" value="&lt;div style=&quot;color: rgb(212, 212, 212); background-color: rgb(30, 30, 30); font-family: Consolas, &amp;quot;Courier New&amp;quot;, monospace; font-size: 16px; line-height: 22px; white-space-collapse: preserve;&quot;&gt;&lt;div&gt;&amp;nbsp; &amp;nbsp; &lt;span style=&quot;color: #569cd6;&quot;&gt;pub&lt;/span&gt;(&lt;span style=&quot;color: #569cd6;&quot;&gt;crate&lt;/span&gt;) &lt;span style=&quot;color: #569cd6;&quot;&gt;fn&lt;/span&gt; &lt;span style=&quot;color: rgb(220, 220, 170); text-decoration-line: underline;&quot;&gt;parse_directives_and_statements&lt;/span&gt;(&lt;/div&gt;&lt;div&gt;&amp;nbsp; &amp;nbsp; &amp;nbsp; &amp;nbsp; &amp;amp;&lt;span style=&quot;color: #569cd6;&quot;&gt;mut&lt;/span&gt; &lt;span style=&quot;color: rgb(86, 156, 214); text-decoration-line: underline;&quot;&gt;self&lt;/span&gt;,&lt;/div&gt;&lt;div&gt;&amp;nbsp; &amp;nbsp; &amp;nbsp; &amp;nbsp; &lt;span style=&quot;color: #9cdcfe;&quot;&gt;is_top_level&lt;/span&gt;: &lt;span style=&quot;color: #4ec9b0;&quot;&gt;bool&lt;/span&gt;,&lt;/div&gt;&lt;div&gt;&amp;nbsp; &amp;nbsp; ) -&amp;gt; &lt;span style=&quot;color: #4ec9b0;&quot;&gt;Result&lt;/span&gt;&amp;lt;(&lt;span style=&quot;color: #4ec9b0;&quot;&gt;Vec&lt;/span&gt;&amp;lt;&lt;span style=&quot;color: #569cd6;&quot;&gt;&#39;&lt;/span&gt;&lt;span style=&quot;color: #569cd6;&quot;&gt;a&lt;/span&gt;, &lt;span style=&quot;color: #4ec9b0;&quot;&gt;Directive&lt;/span&gt;&amp;lt;&lt;span style=&quot;color: #569cd6;&quot;&gt;&#39;&lt;/span&gt;&lt;span style=&quot;color: #569cd6;&quot;&gt;a&lt;/span&gt;&amp;gt;&amp;gt;, &lt;span style=&quot;color: #4ec9b0;&quot;&gt;Vec&lt;/span&gt;&amp;lt;&lt;span style=&quot;color: #569cd6;&quot;&gt;&#39;&lt;/span&gt;&lt;span style=&quot;color: #569cd6;&quot;&gt;a&lt;/span&gt;, &lt;span style=&quot;color: #4ec9b0;&quot;&gt;Statement&lt;/span&gt;&amp;lt;&lt;span style=&quot;color: #569cd6;&quot;&gt;&#39;&lt;/span&gt;&lt;span style=&quot;color: #569cd6;&quot;&gt;a&lt;/span&gt;&amp;gt;&amp;gt;)&amp;gt; {&lt;/div&gt;&lt;div&gt;&amp;nbsp; &amp;nbsp; &amp;nbsp; &amp;nbsp; &lt;span style=&quot;color: #569cd6;&quot;&gt;let&lt;/span&gt; &lt;span style=&quot;color: #569cd6;&quot;&gt;mut&lt;/span&gt; &lt;span style=&quot;color: rgb(156, 220, 254); text-decoration-line: underline;&quot;&gt;directives&lt;/span&gt; = &lt;span style=&quot;color: rgb(86, 156, 214); text-decoration-line: underline;&quot;&gt;self&lt;/span&gt;.&lt;span style=&quot;color: #9cdcfe;&quot;&gt;ast&lt;/span&gt;.&lt;span style=&quot;color: #dcdcaa;&quot;&gt;vec&lt;/span&gt;();&lt;/div&gt;&lt;div&gt;&amp;nbsp; &amp;nbsp; &amp;nbsp; &amp;nbsp; &lt;span style=&quot;color: #569cd6;&quot;&gt;let&lt;/span&gt; &lt;span style=&quot;color: #569cd6;&quot;&gt;mut&lt;/span&gt; &lt;span style=&quot;color: rgb(156, 220, 254); text-decoration-line: underline;&quot;&gt;statements&lt;/span&gt; = &lt;span style=&quot;color: rgb(86, 156, 214); text-decoration-line: underline;&quot;&gt;self&lt;/span&gt;.&lt;span style=&quot;color: #9cdcfe;&quot;&gt;ast&lt;/span&gt;.&lt;span style=&quot;color: #dcdcaa;&quot;&gt;vec&lt;/span&gt;();&lt;/div&gt;&lt;br&gt;&lt;div&gt;&amp;nbsp; &amp;nbsp; &amp;nbsp; &amp;nbsp; &lt;span style=&quot;color: #569cd6;&quot;&gt;let&lt;/span&gt; &lt;span style=&quot;color: #569cd6;&quot;&gt;mut&lt;/span&gt; &lt;span style=&quot;color: rgb(156, 220, 254); text-decoration-line: underline;&quot;&gt;expecting_directives&lt;/span&gt; = &lt;span style=&quot;color: #569cd6;&quot;&gt;true&lt;/span&gt;;&lt;/div&gt;&lt;div&gt;&amp;nbsp; &amp;nbsp; &amp;nbsp; &amp;nbsp; &lt;span style=&quot;color: #c586c0;&quot;&gt;while&lt;/span&gt; !&lt;span style=&quot;color: rgb(86, 156, 214); text-decoration-line: underline;&quot;&gt;self&lt;/span&gt;.&lt;span style=&quot;color: #dcdcaa;&quot;&gt;at&lt;/span&gt;(&lt;span style=&quot;color: #4ec9b0;&quot;&gt;Kind&lt;/span&gt;::&lt;span style=&quot;color: #4fc1ff;&quot;&gt;Eof&lt;/span&gt;) {&lt;/div&gt;&lt;div&gt;&amp;nbsp; &amp;nbsp; &amp;nbsp; &amp;nbsp; &amp;nbsp; &amp;nbsp; &lt;span style=&quot;color: #c586c0;&quot;&gt;if&lt;/span&gt; !&lt;span style=&quot;color: #9cdcfe;&quot;&gt;is_top_level&lt;/span&gt; &amp;amp;&amp;amp; &lt;span style=&quot;color: rgb(86, 156, 214); text-decoration-line: underline;&quot;&gt;self&lt;/span&gt;.&lt;span style=&quot;color: #dcdcaa;&quot;&gt;at&lt;/span&gt;(&lt;span style=&quot;color: #4ec9b0;&quot;&gt;Kind&lt;/span&gt;::&lt;span style=&quot;color: #4fc1ff;&quot;&gt;RCurly&lt;/span&gt;) {&lt;/div&gt;&lt;div&gt;&amp;nbsp; &amp;nbsp; &amp;nbsp; &amp;nbsp; &amp;nbsp; &amp;nbsp; &amp;nbsp; &amp;nbsp; &lt;span style=&quot;color: #c586c0;&quot;&gt;break&lt;/span&gt;;&lt;/div&gt;&lt;div&gt;&amp;nbsp; &amp;nbsp; &amp;nbsp; &amp;nbsp; &amp;nbsp; &amp;nbsp; }&lt;/div&gt;&lt;div&gt;&amp;nbsp; &amp;nbsp; &amp;nbsp; &amp;nbsp; &amp;nbsp; &amp;nbsp; &lt;span style=&quot;color: #569cd6;&quot;&gt;let&lt;/span&gt; &lt;span style=&quot;color: #9cdcfe;&quot;&gt;stmt&lt;/span&gt; = &lt;span style=&quot;color: rgb(86, 156, 214); text-decoration-line: underline;&quot;&gt;self&lt;/span&gt;.&lt;span style=&quot;color: rgb(220, 220, 170); text-decoration-line: underline;&quot;&gt;parse_statement_list_item&lt;/span&gt;(&lt;span style=&quot;color: #4ec9b0;&quot;&gt;StatementContext&lt;/span&gt;::&lt;span style=&quot;color: #4fc1ff;&quot;&gt;StatementList&lt;/span&gt;)?;&lt;/div&gt;&lt;br&gt;&lt;div&gt;&amp;nbsp; &amp;nbsp; &amp;nbsp; &amp;nbsp; &amp;nbsp; &amp;nbsp; &lt;span style=&quot;color: #c586c0;&quot;&gt;if&lt;/span&gt; &lt;span style=&quot;color: #9cdcfe;&quot;&gt;is_top_level&lt;/span&gt; &amp;amp;&amp;amp; &lt;span style=&quot;color: #9cdcfe;&quot;&gt;stmt&lt;/span&gt;.&lt;span style=&quot;color: #dcdcaa;&quot;&gt;is_module_declaration&lt;/span&gt;() {&lt;/div&gt;&lt;div&gt;&amp;nbsp; &amp;nbsp; &amp;nbsp; &amp;nbsp; &amp;nbsp; &amp;nbsp; &amp;nbsp; &amp;nbsp; &lt;span style=&quot;color: rgb(86, 156, 214); text-decoration-line: underline;&quot;&gt;self&lt;/span&gt;.&lt;span style=&quot;color: rgb(220, 220, 170); text-decoration-line: underline;&quot;&gt;set_source_type_to_module_if_unambiguous&lt;/span&gt;();&lt;/div&gt;&lt;div&gt;&amp;nbsp; &amp;nbsp; &amp;nbsp; &amp;nbsp; &amp;nbsp; &amp;nbsp; }&lt;/div&gt;&lt;br&gt;&lt;div&gt;&lt;span style=&quot;color: #6a9955;&quot;&gt;&amp;nbsp; &amp;nbsp; &lt;/span&gt;&lt;/div&gt;&lt;div&gt;&amp;nbsp; &amp;nbsp; &amp;nbsp; &amp;nbsp; &amp;nbsp; &amp;nbsp; &lt;span style=&quot;color: #c586c0;&quot;&gt;if&lt;/span&gt; &lt;span style=&quot;color: rgb(156, 220, 254); text-decoration-line: underline;&quot;&gt;expecting_directives&lt;/span&gt; {&lt;/div&gt;&lt;div&gt;&amp;nbsp; &amp;nbsp; &amp;nbsp; &amp;nbsp; &amp;nbsp; &amp;nbsp; &amp;nbsp; &amp;nbsp; &lt;span style=&quot;color: #c586c0;&quot;&gt;if&lt;/span&gt; &lt;span style=&quot;color: #569cd6;&quot;&gt;let&lt;/span&gt; &lt;span style=&quot;color: #4ec9b0;&quot;&gt;Statement&lt;/span&gt;::&lt;span style=&quot;color: #4fc1ff;&quot;&gt;ExpressionStatement&lt;/span&gt;(&lt;span style=&quot;color: #9cdcfe;&quot;&gt;expr&lt;/span&gt;) = &amp;amp;&lt;span style=&quot;color: #9cdcfe;&quot;&gt;stmt&lt;/span&gt; {&lt;/div&gt;&lt;div&gt;&amp;nbsp; &amp;nbsp; &amp;nbsp; &amp;nbsp; &amp;nbsp; &amp;nbsp; &amp;nbsp; &amp;nbsp; &amp;nbsp; &amp;nbsp; &lt;span style=&quot;color: #c586c0;&quot;&gt;if&lt;/span&gt; &lt;span style=&quot;color: #569cd6;&quot;&gt;let&lt;/span&gt; &lt;span style=&quot;color: #4ec9b0;&quot;&gt;Expression&lt;/span&gt;::&lt;span style=&quot;color: #4fc1ff;&quot;&gt;StringLiteral&lt;/span&gt;(&lt;span style=&quot;color: #9cdcfe;&quot;&gt;string&lt;/span&gt;) = &amp;amp;&lt;span style=&quot;color: #9cdcfe;&quot;&gt;expr&lt;/span&gt;.&lt;span style=&quot;color: #9cdcfe;&quot;&gt;expression&lt;/span&gt; {&lt;/div&gt;&lt;div&gt;&lt;span style=&quot;color: #6a9955;&quot;&gt;&amp;nbsp; &amp;nbsp; &amp;nbsp; &amp;nbsp; &amp;nbsp; &amp;nbsp; &amp;nbsp; &amp;nbsp; &amp;nbsp; &amp;nbsp; &amp;nbsp; &amp;nbsp; &lt;/span&gt;&lt;/div&gt;&lt;div&gt;&amp;nbsp; &amp;nbsp; &amp;nbsp; &amp;nbsp; &amp;nbsp; &amp;nbsp; &amp;nbsp; &amp;nbsp; &amp;nbsp; &amp;nbsp; &amp;nbsp; &amp;nbsp; &lt;span style=&quot;color: #c586c0;&quot;&gt;if&lt;/span&gt; &lt;span style=&quot;color: #9cdcfe;&quot;&gt;expr&lt;/span&gt;.&lt;span style=&quot;color: #9cdcfe;&quot;&gt;span&lt;/span&gt;.&lt;span style=&quot;color: #9cdcfe;&quot;&gt;start&lt;/span&gt; == &lt;span style=&quot;color: #9cdcfe;&quot;&gt;string&lt;/span&gt;.&lt;span style=&quot;color: #9cdcfe;&quot;&gt;span&lt;/span&gt;.&lt;span style=&quot;color: #9cdcfe;&quot;&gt;start&lt;/span&gt; {&lt;/div&gt;&lt;div&gt;&amp;nbsp; &amp;nbsp; &amp;nbsp; &amp;nbsp; &amp;nbsp; &amp;nbsp; &amp;nbsp; &amp;nbsp; &amp;nbsp; &amp;nbsp; &amp;nbsp; &amp;nbsp; &amp;nbsp; &amp;nbsp; &lt;span style=&quot;color: #569cd6;&quot;&gt;let&lt;/span&gt; &lt;span style=&quot;color: #9cdcfe;&quot;&gt;src&lt;/span&gt; = &amp;amp;&lt;span style=&quot;color: rgb(86, 156, 214); text-decoration-line: underline;&quot;&gt;self&lt;/span&gt;.&lt;span style=&quot;color: #9cdcfe;&quot;&gt;source_text&lt;/span&gt;&lt;/div&gt;&lt;div&gt;&amp;nbsp; &amp;nbsp; &amp;nbsp; &amp;nbsp; &amp;nbsp; &amp;nbsp; &amp;nbsp; &amp;nbsp; &amp;nbsp; &amp;nbsp; &amp;nbsp; &amp;nbsp; &amp;nbsp; &amp;nbsp; &amp;nbsp; &amp;nbsp; [&lt;span style=&quot;color: #9cdcfe;&quot;&gt;string&lt;/span&gt;.&lt;span style=&quot;color: #9cdcfe;&quot;&gt;span&lt;/span&gt;.&lt;span style=&quot;color: #9cdcfe;&quot;&gt;start&lt;/span&gt; &lt;span style=&quot;color: #569cd6;&quot;&gt;as&lt;/span&gt; &lt;span style=&quot;color: #4ec9b0;&quot;&gt;usize&lt;/span&gt; + &lt;span style=&quot;color: #b5cea8;&quot;&gt;1&lt;/span&gt;..&lt;span style=&quot;color: #9cdcfe;&quot;&gt;string&lt;/span&gt;.&lt;span style=&quot;color: #9cdcfe;&quot;&gt;span&lt;/span&gt;.&lt;span style=&quot;color: #9cdcfe;&quot;&gt;end&lt;/span&gt; &lt;span style=&quot;color: #569cd6;&quot;&gt;as&lt;/span&gt; &lt;span style=&quot;color: #4ec9b0;&quot;&gt;usize&lt;/span&gt; - &lt;span style=&quot;color: #b5cea8;&quot;&gt;1&lt;/span&gt;];&lt;/div&gt;&lt;div&gt;&amp;nbsp; &amp;nbsp; &amp;nbsp; &amp;nbsp; &amp;nbsp; &amp;nbsp; &amp;nbsp; &amp;nbsp; &amp;nbsp; &amp;nbsp; &amp;nbsp; &amp;nbsp; &amp;nbsp; &amp;nbsp; &lt;span style=&quot;color: #569cd6;&quot;&gt;let&lt;/span&gt; &lt;span style=&quot;color: #9cdcfe;&quot;&gt;directive&lt;/span&gt; =&lt;/div&gt;&lt;div&gt;&amp;nbsp; &amp;nbsp; &amp;nbsp; &amp;nbsp; &amp;nbsp; &amp;nbsp; &amp;nbsp; &amp;nbsp; &amp;nbsp; &amp;nbsp; &amp;nbsp; &amp;nbsp; &amp;nbsp; &amp;nbsp; &amp;nbsp; &amp;nbsp; &lt;span style=&quot;color: rgb(86, 156, 214); text-decoration-line: underline;&quot;&gt;self&lt;/span&gt;.&lt;span style=&quot;color: #9cdcfe;&quot;&gt;ast&lt;/span&gt;.&lt;span style=&quot;color: #dcdcaa;&quot;&gt;directive&lt;/span&gt;(&lt;span style=&quot;color: #9cdcfe;&quot;&gt;expr&lt;/span&gt;.&lt;span style=&quot;color: #9cdcfe;&quot;&gt;span&lt;/span&gt;, (*&lt;span style=&quot;color: #9cdcfe;&quot;&gt;string&lt;/span&gt;).&lt;span style=&quot;color: #dcdcaa;&quot;&gt;clone&lt;/span&gt;(), &lt;span style=&quot;color: #4ec9b0;&quot;&gt;Atom&lt;/span&gt;::&lt;span style=&quot;color: #dcdcaa;&quot;&gt;from&lt;/span&gt;(&lt;span style=&quot;color: #9cdcfe;&quot;&gt;src&lt;/span&gt;));&lt;/div&gt;&lt;div&gt;&amp;nbsp; &amp;nbsp; &amp;nbsp; &amp;nbsp; &amp;nbsp; &amp;nbsp; &amp;nbsp; &amp;nbsp; &amp;nbsp; &amp;nbsp; &amp;nbsp; &amp;nbsp; &amp;nbsp; &amp;nbsp; &lt;span style=&quot;color: rgb(156, 220, 254); text-decoration-line: underline;&quot;&gt;directives&lt;/span&gt;.&lt;span style=&quot;color: rgb(220, 220, 170); text-decoration-line: underline;&quot;&gt;push&lt;/span&gt;(&lt;span style=&quot;color: #9cdcfe;&quot;&gt;directive&lt;/span&gt;);&lt;/div&gt;&lt;div&gt;&amp;nbsp; &amp;nbsp; &amp;nbsp; &amp;nbsp; &amp;nbsp; &amp;nbsp; &amp;nbsp; &amp;nbsp; &amp;nbsp; &amp;nbsp; &amp;nbsp; &amp;nbsp; &amp;nbsp; &amp;nbsp; &lt;span style=&quot;color: #c586c0;&quot;&gt;continue&lt;/span&gt;;&lt;/div&gt;&lt;div&gt;&amp;nbsp; &amp;nbsp; &amp;nbsp; &amp;nbsp; &amp;nbsp; &amp;nbsp; &amp;nbsp; &amp;nbsp; &amp;nbsp; &amp;nbsp; &amp;nbsp; &amp;nbsp; }&lt;/div&gt;&lt;div&gt;&amp;nbsp; &amp;nbsp; &amp;nbsp; &amp;nbsp; &amp;nbsp; &amp;nbsp; &amp;nbsp; &amp;nbsp; &amp;nbsp; &amp;nbsp; }&lt;/div&gt;&lt;div&gt;&amp;nbsp; &amp;nbsp; &amp;nbsp; &amp;nbsp; &amp;nbsp; &amp;nbsp; &amp;nbsp; &amp;nbsp; }&lt;/div&gt;&lt;div&gt;&amp;nbsp; &amp;nbsp; &amp;nbsp; &amp;nbsp; &amp;nbsp; &amp;nbsp; &amp;nbsp; &amp;nbsp; &lt;span style=&quot;color: rgb(156, 220, 254); text-decoration-line: underline;&quot;&gt;expecting_directives&lt;/span&gt; = &lt;span style=&quot;color: #569cd6;&quot;&gt;false&lt;/span&gt;;&lt;/div&gt;&lt;div&gt;&amp;nbsp; &amp;nbsp; &amp;nbsp; &amp;nbsp; &amp;nbsp; &amp;nbsp; }&lt;/div&gt;&lt;div&gt;&amp;nbsp; &amp;nbsp; &amp;nbsp; &amp;nbsp; &amp;nbsp; &amp;nbsp; &lt;span style=&quot;color: rgb(156, 220, 254); text-decoration-line: underline;&quot;&gt;statements&lt;/span&gt;.&lt;span style=&quot;color: rgb(220, 220, 170); text-decoration-line: underline;&quot;&gt;push&lt;/span&gt;(&lt;span style=&quot;color: #9cdcfe;&quot;&gt;stmt&lt;/span&gt;);&lt;/div&gt;&lt;div&gt;&amp;nbsp; &amp;nbsp; &amp;nbsp; &amp;nbsp; }&lt;/div&gt;&lt;br&gt;&lt;div&gt;&amp;nbsp; &amp;nbsp; &amp;nbsp; &amp;nbsp; &lt;span style=&quot;color: #4fc1ff;&quot;&gt;Ok&lt;/span&gt;((&lt;span style=&quot;color: rgb(156, 220, 254); text-decoration-line: underline;&quot;&gt;directives&lt;/span&gt;, &lt;span style=&quot;color: rgb(156, 220, 254); text-decoration-line: underline;&quot;&gt;statements&lt;/span&gt;))&lt;/div&gt;&lt;div&gt;&amp;nbsp; &amp;nbsp; }&lt;/div&gt;&lt;/div&gt;" style="text;html=1;align=left;verticalAlign=middle;resizable=0;points=[];autosize=1;strokeColor=none;fillColor=none;fontFamily=Helvetica;fontSize=11;fontColor=default;labelBackgroundColor=default;spacing=0;horizontal=1;labelBorderColor=none;textShadow=0;" parent="1" vertex="1">
          <mxGeometry x="-1580" y="-1705" width="880" height="890" as="geometry" />
        </mxCell>
        <mxCell id="MIUAk5PfHKwsW5mlS8Yd-4" value="&lt;div style=&quot;color: rgb(212, 212, 212); background-color: rgb(30, 30, 30); font-family: Consolas, &amp;quot;Courier New&amp;quot;, monospace; font-size: 16px; line-height: 22px; white-space-collapse: preserve;&quot;&gt;&lt;div&gt;&amp;nbsp; &amp;nbsp; &lt;span style=&quot;color: #569cd6;&quot;&gt;pub&lt;/span&gt;(&lt;span style=&quot;color: #569cd6;&quot;&gt;crate&lt;/span&gt;) &lt;span style=&quot;color: #569cd6;&quot;&gt;fn&lt;/span&gt; &lt;span style=&quot;color: rgb(220, 220, 170); text-decoration-line: underline;&quot;&gt;parse_statement_list_item&lt;/span&gt;(&lt;/div&gt;&lt;div&gt;&amp;nbsp; &amp;nbsp; &amp;nbsp; &amp;nbsp; &amp;amp;&lt;span style=&quot;color: #569cd6;&quot;&gt;mut&lt;/span&gt; &lt;span style=&quot;color: rgb(86, 156, 214); text-decoration-line: underline;&quot;&gt;self&lt;/span&gt;,&lt;/div&gt;&lt;div&gt;&amp;nbsp; &amp;nbsp; &amp;nbsp; &amp;nbsp; &lt;span style=&quot;color: #9cdcfe;&quot;&gt;stmt_ctx&lt;/span&gt;: &lt;span style=&quot;color: #4ec9b0;&quot;&gt;StatementContext&lt;/span&gt;,&lt;/div&gt;&lt;div&gt;&amp;nbsp; &amp;nbsp; ) -&amp;gt; &lt;span style=&quot;color: #4ec9b0;&quot;&gt;Result&lt;/span&gt;&amp;lt;&lt;span style=&quot;color: #4ec9b0;&quot;&gt;Statement&lt;/span&gt;&amp;lt;&lt;span style=&quot;color: #569cd6;&quot;&gt;&#39;&lt;/span&gt;&lt;span style=&quot;color: #569cd6;&quot;&gt;a&lt;/span&gt;&amp;gt;&amp;gt; {&lt;/div&gt;&lt;div&gt;&amp;nbsp; &amp;nbsp; &amp;nbsp; &amp;nbsp; &lt;span style=&quot;color: #569cd6;&quot;&gt;let&lt;/span&gt; &lt;span style=&quot;color: #9cdcfe;&quot;&gt;start_span&lt;/span&gt; = &lt;span style=&quot;color: rgb(86, 156, 214); text-decoration-line: underline;&quot;&gt;self&lt;/span&gt;.&lt;span style=&quot;color: #dcdcaa;&quot;&gt;start_span&lt;/span&gt;();&lt;/div&gt;&lt;br&gt;&lt;div&gt;&amp;nbsp; &amp;nbsp; &amp;nbsp; &amp;nbsp; &lt;span style=&quot;color: #c586c0;&quot;&gt;if&lt;/span&gt; &lt;span style=&quot;color: rgb(86, 156, 214); text-decoration-line: underline;&quot;&gt;self&lt;/span&gt;.&lt;span style=&quot;color: #dcdcaa;&quot;&gt;at&lt;/span&gt;(&lt;span style=&quot;color: #4ec9b0;&quot;&gt;Kind&lt;/span&gt;::&lt;span style=&quot;color: #4fc1ff;&quot;&gt;At&lt;/span&gt;) {&lt;/div&gt;&lt;div&gt;&amp;nbsp; &amp;nbsp; &amp;nbsp; &amp;nbsp; &amp;nbsp; &amp;nbsp; &lt;span style=&quot;color: rgb(86, 156, 214); text-decoration-line: underline;&quot;&gt;self&lt;/span&gt;.&lt;span style=&quot;color: rgb(220, 220, 170); text-decoration-line: underline;&quot;&gt;eat_decorators&lt;/span&gt;()?;&lt;/div&gt;&lt;div&gt;&amp;nbsp; &amp;nbsp; &amp;nbsp; &amp;nbsp; }&lt;/div&gt;&lt;br&gt;&lt;div&gt;&amp;nbsp; &amp;nbsp; &amp;nbsp; &amp;nbsp; &lt;span style=&quot;color: #c586c0;&quot;&gt;match&lt;/span&gt; &lt;span style=&quot;color: rgb(86, 156, 214); text-decoration-line: underline;&quot;&gt;self&lt;/span&gt;.&lt;span style=&quot;color: #dcdcaa;&quot;&gt;cur_kind&lt;/span&gt;() {&lt;/div&gt;&lt;div&gt;&lt;br&gt;&lt;/div&gt;&lt;div&gt;&lt;span style=&quot;color: #6a9955;&quot;&gt;&amp;nbsp; &amp;nbsp; &amp;nbsp; &amp;nbsp; &amp;nbsp; &amp;nbsp; &lt;/span&gt;&lt;span style=&quot;color: #6a9955;&quot;&gt;// [+Return] ReturnStatement[?Yield, ?Await]&lt;/span&gt;&lt;/div&gt;&lt;div&gt;&amp;nbsp; &amp;nbsp; &amp;nbsp; &amp;nbsp; &amp;nbsp; &amp;nbsp; &lt;span style=&quot;color: #4ec9b0;&quot;&gt;Kind&lt;/span&gt;::&lt;span style=&quot;color: #4fc1ff;&quot;&gt;Return&lt;/span&gt; =&amp;gt; &lt;span style=&quot;color: rgb(86, 156, 214); text-decoration-line: underline;&quot;&gt;self&lt;/span&gt;.&lt;span style=&quot;color: rgb(220, 220, 170); text-decoration-line: underline;&quot;&gt;parse_return_statement&lt;/span&gt;(),&lt;/div&gt;&lt;div&gt;&amp;nbsp; &amp;nbsp; &amp;nbsp; &amp;nbsp; &amp;nbsp; &amp;nbsp; &lt;span style=&quot;color: #4ec9b0;&quot;&gt;Kind&lt;/span&gt;::&lt;span style=&quot;color: #4fc1ff;&quot;&gt;Var&lt;/span&gt; =&amp;gt; &lt;span style=&quot;color: rgb(86, 156, 214); text-decoration-line: underline;&quot;&gt;self&lt;/span&gt;.&lt;span style=&quot;color: rgb(220, 220, 170); text-decoration-line: underline;&quot;&gt;parse_variable_statement&lt;/span&gt;(&lt;span style=&quot;color: #9cdcfe;&quot;&gt;stmt_ctx&lt;/span&gt;),&lt;/div&gt;&lt;div&gt;&amp;nbsp; &amp;nbsp; &amp;nbsp;&lt;/div&gt;&lt;div&gt;&amp;nbsp; &amp;nbsp; &amp;nbsp; &amp;nbsp; &amp;nbsp; &amp;nbsp; &lt;span style=&quot;color: #9cdcfe;&quot;&gt;_&lt;/span&gt; =&amp;gt; &lt;span style=&quot;color: rgb(86, 156, 214); text-decoration-line: underline;&quot;&gt;self&lt;/span&gt;.&lt;span style=&quot;color: rgb(220, 220, 170); text-decoration-line: underline;&quot;&gt;parse_expression_or_labeled_statement&lt;/span&gt;(),&lt;/div&gt;&lt;div&gt;&amp;nbsp; &amp;nbsp; &amp;nbsp; &amp;nbsp; }&lt;/div&gt;&lt;div&gt;&amp;nbsp; &amp;nbsp; }&lt;/div&gt;&lt;br&gt;&lt;/div&gt;" style="text;html=1;align=left;verticalAlign=middle;resizable=0;points=[];autosize=1;strokeColor=none;fillColor=none;fontFamily=Helvetica;fontSize=11;fontColor=default;labelBackgroundColor=default;spacing=0;horizontal=1;labelBorderColor=none;textShadow=0;" parent="1" vertex="1">
          <mxGeometry x="-650" y="-2100" width="590" height="450" as="geometry" />
        </mxCell>
        <mxCell id="MIUAk5PfHKwsW5mlS8Yd-10" value="" style="edgeStyle=orthogonalEdgeStyle;shape=connector;rounded=0;orthogonalLoop=1;jettySize=auto;html=1;strokeColor=default;strokeWidth=2;align=center;verticalAlign=top;spacing=0;fontFamily=Helvetica;fontSize=11;fontColor=default;labelBackgroundColor=default;endArrow=classic;" parent="1" source="MIUAk5PfHKwsW5mlS8Yd-5" target="MIUAk5PfHKwsW5mlS8Yd-9" edge="1">
          <mxGeometry relative="1" as="geometry" />
        </mxCell>
        <mxCell id="MIUAk5PfHKwsW5mlS8Yd-11" value="" style="edgeStyle=orthogonalEdgeStyle;shape=connector;rounded=0;orthogonalLoop=1;jettySize=auto;html=1;strokeColor=default;strokeWidth=2;align=center;verticalAlign=top;spacing=0;fontFamily=Helvetica;fontSize=11;fontColor=default;labelBackgroundColor=default;endArrow=classic;" parent="1" source="MIUAk5PfHKwsW5mlS8Yd-5" target="MIUAk5PfHKwsW5mlS8Yd-9" edge="1">
          <mxGeometry relative="1" as="geometry" />
        </mxCell>
        <mxCell id="MIUAk5PfHKwsW5mlS8Yd-5" value="&lt;div style=&quot;color: rgb(212, 212, 212); background-color: rgb(30, 30, 30); font-family: Consolas, &amp;quot;Courier New&amp;quot;, monospace; font-size: 16px; line-height: 22px; white-space-collapse: preserve;&quot;&gt;&lt;div&gt;&amp;nbsp; &amp;nbsp;&lt;span style=&quot;color: #569cd6;&quot;&gt;pub&lt;/span&gt;(&lt;span style=&quot;color: #569cd6;&quot;&gt;crate&lt;/span&gt;) &lt;span style=&quot;color: #569cd6;&quot;&gt;fn&lt;/span&gt; &lt;span style=&quot;color: rgb(220, 220, 170); text-decoration-line: underline;&quot;&gt;parse_variable_statement&lt;/span&gt;(&lt;/div&gt;&lt;div&gt;&amp;nbsp; &amp;nbsp; &amp;nbsp; &amp;nbsp; &amp;amp;&lt;span style=&quot;color: #569cd6;&quot;&gt;mut&lt;/span&gt; &lt;span style=&quot;color: rgb(86, 156, 214); text-decoration-line: underline;&quot;&gt;self&lt;/span&gt;,&lt;/div&gt;&lt;div&gt;&amp;nbsp; &amp;nbsp; &amp;nbsp; &amp;nbsp; &lt;span style=&quot;color: #9cdcfe;&quot;&gt;stmt_ctx&lt;/span&gt;: &lt;span style=&quot;color: #4ec9b0;&quot;&gt;StatementContext&lt;/span&gt;,&lt;/div&gt;&lt;div&gt;&amp;nbsp; &amp;nbsp; ) -&amp;gt; &lt;span style=&quot;color: #4ec9b0;&quot;&gt;Result&lt;/span&gt;&amp;lt;&lt;span style=&quot;color: #4ec9b0;&quot;&gt;Statement&lt;/span&gt;&amp;lt;&lt;span style=&quot;color: #569cd6;&quot;&gt;&#39;&lt;/span&gt;&lt;span style=&quot;color: #569cd6;&quot;&gt;a&lt;/span&gt;&amp;gt;&amp;gt; {&lt;/div&gt;&lt;div&gt;&amp;nbsp; &amp;nbsp; &amp;nbsp; &amp;nbsp; &lt;span style=&quot;color: #569cd6;&quot;&gt;let&lt;/span&gt; &lt;span style=&quot;color: #9cdcfe;&quot;&gt;start_span&lt;/span&gt; = &lt;span style=&quot;color: rgb(86, 156, 214); text-decoration-line: underline;&quot;&gt;self&lt;/span&gt;.&lt;span style=&quot;color: #dcdcaa;&quot;&gt;start_span&lt;/span&gt;();&lt;/div&gt;&lt;div&gt;&amp;nbsp; &amp;nbsp; &amp;nbsp; &amp;nbsp; &lt;span style=&quot;color: #569cd6;&quot;&gt;let&lt;/span&gt; &lt;span style=&quot;color: #9cdcfe;&quot;&gt;decl&lt;/span&gt; = &lt;span style=&quot;color: rgb(86, 156, 214); text-decoration-line: underline;&quot;&gt;self&lt;/span&gt;.&lt;span style=&quot;color: rgb(220, 220, 170); text-decoration-line: underline;&quot;&gt;parse_variable_declaration&lt;/span&gt;(&lt;/div&gt;&lt;div&gt;&amp;nbsp; &amp;nbsp; &amp;nbsp; &amp;nbsp; &amp;nbsp; &amp;nbsp; &lt;span style=&quot;color: #9cdcfe;&quot;&gt;start_span&lt;/span&gt;,&lt;/div&gt;&lt;div&gt;&amp;nbsp; &amp;nbsp; &amp;nbsp; &amp;nbsp; &amp;nbsp; &amp;nbsp; &lt;span style=&quot;color: #4ec9b0;&quot;&gt;VariableDeclarationContext&lt;/span&gt;::&lt;span style=&quot;color: #dcdcaa;&quot;&gt;new&lt;/span&gt;(&lt;span style=&quot;color: #4ec9b0;&quot;&gt;VariableDeclarationParent&lt;/span&gt;::&lt;span style=&quot;color: #4fc1ff;&quot;&gt;Statement&lt;/span&gt;),&lt;/div&gt;&lt;div&gt;&amp;nbsp; &amp;nbsp; &amp;nbsp; &amp;nbsp; &amp;nbsp; &amp;nbsp; &amp;amp;&lt;span style=&quot;color: #4ec9b0;&quot;&gt;Modifiers&lt;/span&gt;::&lt;span style=&quot;color: #dcdcaa;&quot;&gt;empty&lt;/span&gt;(),&lt;/div&gt;&lt;div&gt;&amp;nbsp; &amp;nbsp; &amp;nbsp; &amp;nbsp; )?;&lt;/div&gt;&lt;br&gt;&lt;div&gt;&amp;nbsp; &amp;nbsp; &amp;nbsp; &amp;nbsp; &lt;span style=&quot;color: #c586c0;&quot;&gt;if&lt;/span&gt; &lt;span style=&quot;color: #9cdcfe;&quot;&gt;stmt_ctx&lt;/span&gt;.&lt;span style=&quot;color: #dcdcaa;&quot;&gt;is_single_statement&lt;/span&gt;() &amp;amp;&amp;amp; &lt;span style=&quot;color: #9cdcfe;&quot;&gt;decl&lt;/span&gt;.&lt;span style=&quot;color: #9cdcfe;&quot;&gt;kind&lt;/span&gt;.&lt;span style=&quot;color: #dcdcaa;&quot;&gt;is_lexical&lt;/span&gt;() {&lt;/div&gt;&lt;div&gt;&amp;nbsp; &amp;nbsp; &amp;nbsp; &amp;nbsp; &amp;nbsp; &amp;nbsp; &lt;span style=&quot;color: rgb(86, 156, 214); text-decoration-line: underline;&quot;&gt;self&lt;/span&gt;.&lt;span style=&quot;color: rgb(220, 220, 170); text-decoration-line: underline;&quot;&gt;error&lt;/span&gt;(&lt;span style=&quot;color: #4ec9b0;&quot;&gt;diagnostics&lt;/span&gt;::&lt;span style=&quot;color: #dcdcaa;&quot;&gt;lexical_declaration_single_statement&lt;/span&gt;(&lt;span style=&quot;color: #9cdcfe;&quot;&gt;decl&lt;/span&gt;.&lt;span style=&quot;color: #9cdcfe;&quot;&gt;span&lt;/span&gt;));&lt;/div&gt;&lt;div&gt;&amp;nbsp; &amp;nbsp; &amp;nbsp; &amp;nbsp; }&lt;/div&gt;&lt;br&gt;&lt;div&gt;&amp;nbsp; &amp;nbsp; &amp;nbsp; &amp;nbsp; &lt;span style=&quot;color: #4fc1ff;&quot;&gt;Ok&lt;/span&gt;(&lt;span style=&quot;color: #4ec9b0;&quot;&gt;Statement&lt;/span&gt;::&lt;span style=&quot;color: #4fc1ff;&quot;&gt;VariableDeclaration&lt;/span&gt;(&lt;span style=&quot;color: #9cdcfe;&quot;&gt;decl&lt;/span&gt;))&lt;/div&gt;&lt;div&gt;&amp;nbsp; &amp;nbsp; }&lt;/div&gt;&lt;/div&gt;" style="text;html=1;align=left;verticalAlign=middle;resizable=0;points=[];autosize=1;strokeColor=none;fillColor=none;fontFamily=Helvetica;fontSize=11;fontColor=default;labelBackgroundColor=default;spacing=0;horizontal=1;labelBorderColor=none;textShadow=0;" parent="1" vertex="1">
          <mxGeometry x="-650" y="-1620" width="770" height="380" as="geometry" />
        </mxCell>
        <mxCell id="MIUAk5PfHKwsW5mlS8Yd-6" value="" style="edgeStyle=elbowEdgeStyle;orthogonalLoop=1;jettySize=auto;html=1;rounded=0;strokeColor=default;strokeWidth=2;align=left;verticalAlign=middle;spacing=0;fontFamily=Helvetica;fontSize=11;fontColor=default;labelBackgroundColor=default;endArrow=classic;exitX=0.447;exitY=1.006;exitDx=0;exitDy=0;exitPerimeter=0;horizontal=1;labelBorderColor=none;textShadow=0;" parent="1" source="MIUAk5PfHKwsW5mlS8Yd-1" target="MIUAk5PfHKwsW5mlS8Yd-3" edge="1">
          <mxGeometry width="100" relative="1" as="geometry">
            <mxPoint x="-1250" y="-1730" as="sourcePoint" />
            <mxPoint x="-1150" y="-1730" as="targetPoint" />
          </mxGeometry>
        </mxCell>
        <mxCell id="MIUAk5PfHKwsW5mlS8Yd-7" value="" style="edgeStyle=elbowEdgeStyle;orthogonalLoop=1;jettySize=auto;html=1;rounded=0;strokeColor=default;strokeWidth=2;align=left;verticalAlign=middle;spacing=0;fontFamily=Helvetica;fontSize=11;fontColor=default;labelBackgroundColor=default;endArrow=classic;entryX=0.005;entryY=0.627;entryDx=0;entryDy=0;entryPerimeter=0;exitX=0.999;exitY=0.293;exitDx=0;exitDy=0;exitPerimeter=0;horizontal=1;labelBorderColor=none;textShadow=0;" parent="1" source="MIUAk5PfHKwsW5mlS8Yd-3" target="MIUAk5PfHKwsW5mlS8Yd-4" edge="1">
          <mxGeometry width="100" relative="1" as="geometry">
            <mxPoint x="-620" y="-1519" as="sourcePoint" />
            <mxPoint x="-619" y="-1411" as="targetPoint" />
          </mxGeometry>
        </mxCell>
        <mxCell id="MIUAk5PfHKwsW5mlS8Yd-8" value="" style="edgeStyle=elbowEdgeStyle;orthogonalLoop=1;jettySize=auto;html=1;rounded=0;strokeColor=default;strokeWidth=2;align=left;verticalAlign=middle;spacing=0;fontFamily=Helvetica;fontSize=11;fontColor=default;labelBackgroundColor=default;endArrow=classic;exitX=0.453;exitY=1.011;exitDx=0;exitDy=0;exitPerimeter=0;horizontal=1;labelBorderColor=none;textShadow=0;" parent="1" source="MIUAk5PfHKwsW5mlS8Yd-4" target="MIUAk5PfHKwsW5mlS8Yd-5" edge="1">
          <mxGeometry width="100" relative="1" as="geometry">
            <mxPoint x="-380" y="-1017" as="sourcePoint" />
            <mxPoint x="-380" y="-1220" as="targetPoint" />
          </mxGeometry>
        </mxCell>
        <mxCell id="MIUAk5PfHKwsW5mlS8Yd-9" value="&lt;div style=&quot;color: rgb(212, 212, 212); background-color: rgb(30, 30, 30); font-family: Consolas, &amp;quot;Courier New&amp;quot;, monospace; font-size: 16px; line-height: 22px; white-space-collapse: preserve;&quot;&gt;&lt;div style=&quot;line-height: 22px;&quot;&gt;&lt;div&gt;&amp;nbsp; &lt;span style=&quot;color: #569cd6;&quot;&gt;pub&lt;/span&gt;(&lt;span style=&quot;color: #569cd6;&quot;&gt;crate&lt;/span&gt;) &lt;span style=&quot;color: #569cd6;&quot;&gt;fn&lt;/span&gt; &lt;span style=&quot;color: rgb(220, 220, 170); text-decoration-line: underline;&quot;&gt;parse_variable_declaration&lt;/span&gt;(&lt;/div&gt;&lt;div&gt;&amp;nbsp; &amp;nbsp; &amp;nbsp; &amp;nbsp; &amp;amp;&lt;span style=&quot;color: #569cd6;&quot;&gt;mut&lt;/span&gt; &lt;span style=&quot;color: rgb(86, 156, 214); text-decoration-line: underline;&quot;&gt;self&lt;/span&gt;,&lt;/div&gt;&lt;div&gt;&amp;nbsp; &amp;nbsp; &amp;nbsp; &amp;nbsp; &lt;span style=&quot;color: #9cdcfe;&quot;&gt;start_span&lt;/span&gt;: &lt;span style=&quot;color: #4ec9b0;&quot;&gt;Span&lt;/span&gt;,&lt;/div&gt;&lt;div&gt;&amp;nbsp; &amp;nbsp; &amp;nbsp; &amp;nbsp; &lt;span style=&quot;color: #9cdcfe;&quot;&gt;decl_ctx&lt;/span&gt;: &lt;span style=&quot;color: #4ec9b0;&quot;&gt;VariableDeclarationContext&lt;/span&gt;,&lt;/div&gt;&lt;div&gt;&amp;nbsp; &amp;nbsp; &amp;nbsp; &amp;nbsp; &lt;span style=&quot;color: #9cdcfe;&quot;&gt;modifiers&lt;/span&gt;: &amp;amp;&lt;span style=&quot;color: #4ec9b0;&quot;&gt;Modifiers&lt;/span&gt;&amp;lt;&lt;span style=&quot;color: #569cd6;&quot;&gt;&#39;&lt;/span&gt;&lt;span style=&quot;color: #569cd6;&quot;&gt;a&lt;/span&gt;&amp;gt;,&lt;/div&gt;&lt;div&gt;&amp;nbsp; &amp;nbsp; ) -&amp;gt; &lt;span style=&quot;color: #4ec9b0;&quot;&gt;Result&lt;/span&gt;&amp;lt;&lt;span style=&quot;color: #4ec9b0;&quot;&gt;Box&lt;/span&gt;&amp;lt;&lt;span style=&quot;color: #569cd6;&quot;&gt;&#39;&lt;/span&gt;&lt;span style=&quot;color: #569cd6;&quot;&gt;a&lt;/span&gt;, &lt;span style=&quot;color: #4ec9b0;&quot;&gt;VariableDeclaration&lt;/span&gt;&amp;lt;&lt;span style=&quot;color: #569cd6;&quot;&gt;&#39;&lt;/span&gt;&lt;span style=&quot;color: #569cd6;&quot;&gt;a&lt;/span&gt;&amp;gt;&amp;gt;&amp;gt; {&lt;/div&gt;&lt;div&gt;&amp;nbsp; &amp;nbsp; &amp;nbsp; &amp;nbsp; &lt;span style=&quot;color: #569cd6;&quot;&gt;let&lt;/span&gt; &lt;span style=&quot;color: #9cdcfe;&quot;&gt;kind&lt;/span&gt; = &lt;span style=&quot;color: #c586c0;&quot;&gt;match&lt;/span&gt; &lt;span style=&quot;color: rgb(86, 156, 214); text-decoration-line: underline;&quot;&gt;self&lt;/span&gt;.&lt;span style=&quot;color: #dcdcaa;&quot;&gt;cur_kind&lt;/span&gt;() {&lt;/div&gt;&lt;div&gt;&amp;nbsp; &amp;nbsp; &amp;nbsp; &amp;nbsp; &amp;nbsp; &amp;nbsp; &lt;span style=&quot;color: #4ec9b0;&quot;&gt;Kind&lt;/span&gt;::&lt;span style=&quot;color: #4fc1ff;&quot;&gt;Var&lt;/span&gt; =&amp;gt; &lt;span style=&quot;color: #4ec9b0;&quot;&gt;VariableDeclarationKind&lt;/span&gt;::&lt;span style=&quot;color: #4fc1ff;&quot;&gt;Var&lt;/span&gt;,&lt;/div&gt;&lt;div&gt;&amp;nbsp; &amp;nbsp; &amp;nbsp; &amp;nbsp; &amp;nbsp; &amp;nbsp; &lt;span style=&quot;color: #4ec9b0;&quot;&gt;Kind&lt;/span&gt;::&lt;span style=&quot;color: #4fc1ff;&quot;&gt;Const&lt;/span&gt; =&amp;gt; &lt;span style=&quot;color: #4ec9b0;&quot;&gt;VariableDeclarationKind&lt;/span&gt;::&lt;span style=&quot;color: #4fc1ff;&quot;&gt;Const&lt;/span&gt;,&lt;/div&gt;&lt;div&gt;&amp;nbsp; &amp;nbsp; &amp;nbsp; &amp;nbsp; &amp;nbsp; &amp;nbsp; &lt;span style=&quot;color: #4ec9b0;&quot;&gt;Kind&lt;/span&gt;::&lt;span style=&quot;color: #4fc1ff;&quot;&gt;Let&lt;/span&gt; =&amp;gt; &lt;span style=&quot;color: #4ec9b0;&quot;&gt;VariableDeclarationKind&lt;/span&gt;::&lt;span style=&quot;color: #4fc1ff;&quot;&gt;Let&lt;/span&gt;,&lt;/div&gt;&lt;div&gt;&amp;nbsp; &amp;nbsp; &amp;nbsp; &amp;nbsp; &amp;nbsp; &amp;nbsp; &lt;span style=&quot;color: #9cdcfe;&quot;&gt;_&lt;/span&gt; =&amp;gt; &lt;span style=&quot;color: #c586c0;&quot;&gt;return&lt;/span&gt; &lt;span style=&quot;color: #4fc1ff;&quot;&gt;Err&lt;/span&gt;(&lt;span style=&quot;color: rgb(86, 156, 214); text-decoration-line: underline;&quot;&gt;self&lt;/span&gt;.&lt;span style=&quot;color: rgb(220, 220, 170); text-decoration-line: underline;&quot;&gt;unexpected&lt;/span&gt;()),&lt;/div&gt;&lt;div&gt;&amp;nbsp; &amp;nbsp; &amp;nbsp; &amp;nbsp; };&lt;/div&gt;&lt;div&gt;&amp;nbsp; &amp;nbsp; &amp;nbsp; &amp;nbsp; &lt;span style=&quot;color: rgb(86, 156, 214); text-decoration-line: underline;&quot;&gt;self&lt;/span&gt;.&lt;span style=&quot;color: rgb(220, 220, 170); text-decoration-line: underline;&quot;&gt;bump_any&lt;/span&gt;();&lt;/div&gt;&lt;br&gt;&lt;div&gt;&amp;nbsp; &amp;nbsp; &amp;nbsp; &amp;nbsp; &lt;span style=&quot;color: #569cd6;&quot;&gt;let&lt;/span&gt; &lt;span style=&quot;color: #569cd6;&quot;&gt;mut&lt;/span&gt; &lt;span style=&quot;color: rgb(156, 220, 254); text-decoration-line: underline;&quot;&gt;declarations&lt;/span&gt; = &lt;span style=&quot;color: rgb(86, 156, 214); text-decoration-line: underline;&quot;&gt;self&lt;/span&gt;.&lt;span style=&quot;color: #9cdcfe;&quot;&gt;ast&lt;/span&gt;.&lt;span style=&quot;color: #dcdcaa;&quot;&gt;vec&lt;/span&gt;();&lt;/div&gt;&lt;div&gt;&amp;nbsp; &amp;nbsp; &amp;nbsp; &amp;nbsp; &lt;span style=&quot;color: #c586c0;&quot;&gt;loop&lt;/span&gt; {&lt;/div&gt;&lt;div&gt;&amp;nbsp; &amp;nbsp; &amp;nbsp; &amp;nbsp; &amp;nbsp; &amp;nbsp; &lt;span style=&quot;color: #569cd6;&quot;&gt;let&lt;/span&gt; &lt;span style=&quot;color: #9cdcfe;&quot;&gt;declaration&lt;/span&gt; = &lt;span style=&quot;color: rgb(86, 156, 214); text-decoration-line: underline;&quot;&gt;self&lt;/span&gt;.&lt;span style=&quot;color: rgb(220, 220, 170); text-decoration-line: underline;&quot;&gt;parse_variable_declarator&lt;/span&gt;(&lt;span style=&quot;color: #9cdcfe;&quot;&gt;decl_ctx&lt;/span&gt;, &lt;span style=&quot;color: #9cdcfe;&quot;&gt;kind&lt;/span&gt;)?;&lt;/div&gt;&lt;div&gt;&amp;nbsp; &amp;nbsp; &amp;nbsp; &amp;nbsp; &amp;nbsp; &amp;nbsp; &lt;span style=&quot;color: rgb(156, 220, 254); text-decoration-line: underline;&quot;&gt;declarations&lt;/span&gt;.&lt;span style=&quot;color: rgb(220, 220, 170); text-decoration-line: underline;&quot;&gt;push&lt;/span&gt;(&lt;span style=&quot;color: #9cdcfe;&quot;&gt;declaration&lt;/span&gt;);&lt;/div&gt;&lt;div&gt;&amp;nbsp; &amp;nbsp; &amp;nbsp; &amp;nbsp; &amp;nbsp; &amp;nbsp; &lt;span style=&quot;color: #c586c0;&quot;&gt;if&lt;/span&gt; !&lt;span style=&quot;color: rgb(86, 156, 214); text-decoration-line: underline;&quot;&gt;self&lt;/span&gt;.&lt;span style=&quot;color: rgb(220, 220, 170); text-decoration-line: underline;&quot;&gt;eat&lt;/span&gt;(&lt;span style=&quot;color: #4ec9b0;&quot;&gt;Kind&lt;/span&gt;::&lt;span style=&quot;color: #4fc1ff;&quot;&gt;Comma&lt;/span&gt;) {&lt;/div&gt;&lt;div&gt;&amp;nbsp; &amp;nbsp; &amp;nbsp; &amp;nbsp; &amp;nbsp; &amp;nbsp; &amp;nbsp; &amp;nbsp; &lt;span style=&quot;color: #c586c0;&quot;&gt;break&lt;/span&gt;;&lt;/div&gt;&lt;div&gt;&amp;nbsp; &amp;nbsp; &amp;nbsp; &amp;nbsp; &amp;nbsp; &amp;nbsp; }&lt;/div&gt;&lt;div&gt;&amp;nbsp; &amp;nbsp; &amp;nbsp; &amp;nbsp; }&lt;/div&gt;&lt;br&gt;&lt;div&gt;&amp;nbsp; &amp;nbsp; &amp;nbsp; &amp;nbsp; &lt;span style=&quot;color: #c586c0;&quot;&gt;if&lt;/span&gt; &lt;span style=&quot;color: #569cd6;&quot;&gt;matches&lt;/span&gt;&lt;span style=&quot;color: #569cd6;&quot;&gt;!&lt;/span&gt;(&lt;/div&gt;&lt;div&gt;&amp;nbsp; &amp;nbsp; &amp;nbsp; &amp;nbsp; &amp;nbsp; &amp;nbsp; &lt;span style=&quot;color: #9cdcfe;&quot;&gt;decl_ctx&lt;/span&gt;.&lt;span style=&quot;color: #9cdcfe;&quot;&gt;parent&lt;/span&gt;,&lt;/div&gt;&lt;div&gt;&amp;nbsp; &amp;nbsp; &amp;nbsp; &amp;nbsp; &amp;nbsp; &amp;nbsp; &lt;span style=&quot;color: #4ec9b0;&quot;&gt;VariableDeclarationParent&lt;/span&gt;::&lt;span style=&quot;color: #4fc1ff;&quot;&gt;Statement&lt;/span&gt; | &lt;span style=&quot;color: #4ec9b0;&quot;&gt;VariableDeclarationParent&lt;/span&gt;::&lt;span style=&quot;color: #4fc1ff;&quot;&gt;Clause&lt;/span&gt;&lt;/div&gt;&lt;div&gt;&amp;nbsp; &amp;nbsp; &amp;nbsp; &amp;nbsp; ) {&lt;/div&gt;&lt;div&gt;&amp;nbsp; &amp;nbsp; &amp;nbsp; &amp;nbsp; &amp;nbsp; &amp;nbsp; &lt;span style=&quot;color: rgb(86, 156, 214); text-decoration-line: underline;&quot;&gt;self&lt;/span&gt;.&lt;span style=&quot;color: rgb(220, 220, 170); text-decoration-line: underline;&quot;&gt;asi&lt;/span&gt;()?;&lt;/div&gt;&lt;div&gt;&amp;nbsp; &amp;nbsp; &amp;nbsp; &amp;nbsp; }&lt;/div&gt;&lt;br&gt;&lt;div&gt;&amp;nbsp; &amp;nbsp; &amp;nbsp; &amp;nbsp; &lt;span style=&quot;color: rgb(86, 156, 214); text-decoration-line: underline;&quot;&gt;self&lt;/span&gt;.&lt;span style=&quot;color: rgb(220, 220, 170); text-decoration-line: underline;&quot;&gt;verify_modifiers&lt;/span&gt;(&lt;/div&gt;&lt;div&gt;&amp;nbsp; &amp;nbsp; &amp;nbsp; &amp;nbsp; &amp;nbsp; &amp;nbsp; &lt;span style=&quot;color: #9cdcfe;&quot;&gt;modifiers&lt;/span&gt;,&lt;/div&gt;&lt;div&gt;&amp;nbsp; &amp;nbsp; &amp;nbsp; &amp;nbsp; &amp;nbsp; &amp;nbsp; &lt;span style=&quot;color: #4ec9b0;&quot;&gt;ModifierFlags&lt;/span&gt;::&lt;span style=&quot;color: #4fc1ff;&quot;&gt;DECLARE&lt;/span&gt;,&lt;/div&gt;&lt;div&gt;&amp;nbsp; &amp;nbsp; &amp;nbsp; &amp;nbsp; &amp;nbsp; &amp;nbsp; &lt;span style=&quot;color: #4ec9b0;&quot;&gt;diagnostics&lt;/span&gt;::&lt;span style=&quot;color: #dcdcaa;&quot;&gt;modifier_cannot_be_used_here&lt;/span&gt;,&lt;/div&gt;&lt;div&gt;&amp;nbsp; &amp;nbsp; &amp;nbsp; &amp;nbsp; );&lt;/div&gt;&lt;br&gt;&lt;div&gt;&amp;nbsp; &amp;nbsp; &amp;nbsp; &amp;nbsp; &lt;span style=&quot;color: #4fc1ff;&quot;&gt;Ok&lt;/span&gt;(&lt;span style=&quot;color: rgb(86, 156, 214); text-decoration-line: underline;&quot;&gt;self&lt;/span&gt;.&lt;span style=&quot;color: #9cdcfe;&quot;&gt;ast&lt;/span&gt;.&lt;span style=&quot;color: #dcdcaa;&quot;&gt;alloc_variable_declaration&lt;/span&gt;(&lt;/div&gt;&lt;div&gt;&amp;nbsp; &amp;nbsp; &amp;nbsp; &amp;nbsp; &amp;nbsp; &amp;nbsp; &lt;span style=&quot;color: rgb(86, 156, 214); text-decoration-line: underline;&quot;&gt;self&lt;/span&gt;.&lt;span style=&quot;color: #dcdcaa;&quot;&gt;end_span&lt;/span&gt;(&lt;span style=&quot;color: #9cdcfe;&quot;&gt;start_span&lt;/span&gt;),&lt;/div&gt;&lt;div&gt;&amp;nbsp; &amp;nbsp; &amp;nbsp; &amp;nbsp; &amp;nbsp; &amp;nbsp; &lt;span style=&quot;color: #9cdcfe;&quot;&gt;kind&lt;/span&gt;,&lt;/div&gt;&lt;div&gt;&amp;nbsp; &amp;nbsp; &amp;nbsp; &amp;nbsp; &amp;nbsp; &amp;nbsp; &lt;span style=&quot;color: rgb(156, 220, 254); text-decoration-line: underline;&quot;&gt;declarations&lt;/span&gt;,&lt;/div&gt;&lt;div&gt;&amp;nbsp; &amp;nbsp; &amp;nbsp; &amp;nbsp; &amp;nbsp; &amp;nbsp; &lt;span style=&quot;color: #9cdcfe;&quot;&gt;modifiers&lt;/span&gt;.&lt;span style=&quot;color: #dcdcaa;&quot;&gt;contains_declare&lt;/span&gt;(),&lt;/div&gt;&lt;div&gt;&amp;nbsp; &amp;nbsp; &amp;nbsp; &amp;nbsp; ))&lt;/div&gt;&lt;div&gt;&amp;nbsp; &amp;nbsp; }&lt;/div&gt;&lt;/div&gt;&lt;/div&gt;" style="text;html=1;align=left;verticalAlign=middle;resizable=0;points=[];autosize=1;strokeColor=none;fillColor=none;fontFamily=Helvetica;fontSize=11;fontColor=default;labelBackgroundColor=default;spacing=0;horizontal=1;labelBorderColor=none;textShadow=0;" parent="1" vertex="1">
          <mxGeometry x="180" y="-2140" width="760" height="960" as="geometry" />
        </mxCell>
      </root>
    </mxGraphModel>
  </diagram>
</mxfile>
